<?xml version="1.0" encoding="utf-8"?>
<svg version="1.1" xmlns:xlink="http://www.w3.org/1999/xlink" width="105px" height="107px" xmlns="http://www.w3.org/2000/svg">
  <g transform="matrix(1 0 0 1 -504 -489 )">
    <path d="M 505 493  A 3 3 0 0 1 508 490 L 605 490  A 3 3 0 0 1 608 493 L 608 592  A 3 3 0 0 1 605 595 L 508 595  A 3 3 0 0 1 505 592 L 505 493  Z " fill-rule="nonzero" fill="#ffffff" stroke="none" />
    <path d="M 504.5 493  A 3.5 3.5 0 0 1 508 489.5 L 605 489.5  A 3.5 3.5 0 0 1 608.5 493 L 608.5 592  A 3.5 3.5 0 0 1 605 595.5 L 508 595.5  A 3.5 3.5 0 0 1 504.5 592 L 504.5 493  Z " stroke-width="1" stroke-dasharray="9,4" stroke="#d9d9d9" fill="none" stroke-dashoffset="0.5" />
  </g>
</svg>