<svg t="1725606050865" class="icon" viewBox="0 0 1024 1024" version="1.1" xmlns="http://www.w3.org/2000/svg" p-id="3556" width="32" height="32"><path d="M842.942335 832.134634h-130.147245l-159.271103 177.814811a42.14996 42.14996 0 0 1-31.399161 14.049986 43.003198 43.003198 0 0 1-31.62669-13.708691L328.382905 832.134634H180.772722A181.284645 181.284645 0 0 1 0.000019 650.736223V181.625941A181.284645 181.284645 0 0 1 180.772722 0.284413h662.169613a181.227763 181.227763 0 0 1 180.772703 181.341528v469.110282a181.227763 181.227763 0 0 1-180.772703 181.398411z m95.562662-650.508693c0-52.900759-42.83255-95.903957-95.562662-95.903958H180.772722c-52.730112 0-95.562662 43.003198-95.562663 95.903958v469.167165c0 52.900759 42.83255 95.903957 95.562663 95.903957h185.038893l155.858151 171.102672 153.241555-171.102672h168.031014c51.933756 0 94.766307-42.320608 95.562662-94.368129V181.625941z m-202.103654 136.802501l-506.93717 0.056883a50.056633 50.056633 0 0 1-32.195516-11.547155 43.970201 43.970201 0 0 1-16.15464-32.252399c-1.023886-25.085199 19.908888-46.245503 46.757445-47.212506h505.685754a50.511693 50.511693 0 0 1 33.84511 11.43339 44.539026 44.539026 0 0 1 16.211523 32.366164c0.910121 24.971434-20.022653 46.131738-47.212506 47.155623z m-508.529881 215.755463h165.073123a47.951979 47.951979 0 0 1 33.958874 11.490272 43.799553 43.799553 0 0 1 16.211523 32.309282c0.967003 24.971434-20.079536 46.18862-47.212505 47.212505H229.407291a49.885985 49.885985 0 0 1-32.081751-11.490272 44.083966 44.083966 0 0 1-16.268406-32.309281c-0.967003-25.028316 19.96577-46.18862 46.814328-47.212506z m-30.48904-73.833533a44.254614 44.254614 0 0 1-16.211523-32.309281c-1.023886-25.028316 20.022653-46.245503 47.212506-47.212506l349.486307 0.056883a49.146512 49.146512 0 0 1 33.958875 11.43339 43.799553 43.799553 0 0 1 16.097758 32.309281c1.137651 25.028316-19.908888 46.18862-47.098741 47.155623l-351.306548 0.056882a50.113515 50.113515 0 0 1-32.138634-11.490272z" fill="#666666" p-id="3557"></path></svg>