<svg t="1725539903995" class="icon" viewBox="0 0 1024 1024" version="1.1" xmlns="http://www.w3.org/2000/svg" p-id="5508" width="32" height="32"><path d="M512 1024a512 512 0 0 0 512-512 512 512 0 0 0-512-512 512 512 0 0 0-512 512 512 512 0 0 0 512 512zM509.001143 256.512a35.986286 35.986286 0 1 1 0-72.045714 35.986286 35.986286 0 0 1 0 72.045714z m121.197714 521.069714H387.803429a35.986286 35.986286 0 0 1-35.986286-35.986285l0.585143-6.436572a35.986286 35.986286 0 0 1 35.401143-29.549714h85.211428V391.533714h-59.977143a35.986286 35.986286 0 0 1-36.059428-36.059428l0.585143-6.436572a35.986286 35.986286 0 0 1 35.401142-29.549714H509.074286l6.509714 0.585143c16.822857 3.072 29.476571 17.773714 29.476571 35.401143v350.134857h85.211429c19.894857 0 35.986286 16.091429 35.986286 35.986286l-0.585143 6.509714a35.986286 35.986286 0 0 1-35.401143 29.476571z" fill="#666666" p-id="5509"></path></svg>