<?xml version="1.0" encoding="utf-8"?>
<svg version="1.1" xmlns:xlink="http://www.w3.org/1999/xlink" width="152px" height="30px" viewBox="84 113  152 30" xmlns="http://www.w3.org/2000/svg">
  <path d="M 85 118  A 4 4 0 0 1 89 114 L 231 114  A 4 4 0 0 1 235 118 L 235 138  A 4 4 0 0 1 231 142 L 89 142  A 4 4 0 0 1 85 138 L 85 118  Z " fill-rule="nonzero" fill="#f0f0f0" stroke="none" />
  <path d="M 84.5 118  A 4.5 4.5 0 0 1 89 113.5 L 231 113.5  A 4.5 4.5 0 0 1 235.5 118 L 235.5 138  A 4.5 4.5 0 0 1 231 142.5 L 89 142.5  A 4.5 4.5 0 0 1 84.5 138 L 84.5 118  Z " stroke-width="1" stroke="#797979" fill="none" stroke-opacity="0.83921568627451" />
</svg>