<svg t="1605760818783" class="icon" viewBox="0 0 1194 1024" version="1.1" xmlns="http://www.w3.org/2000/svg" p-id="1749" width="32" height="32"><path d="M489.728 196.266667V54.954667a42.069333 42.069333 0 0 0-60.757333-37.546667L39.253333 211.968a41.813333 41.813333 0 0 0 0 75.093333L428.373333 482.304a41.898667 41.898667 0 0 0 60.672-37.546667V302.08h259.754667c205.226667 0 339.797333 102.656 339.797333 274.090667 0 177.749333-137.728 306.005333-349.866666 306.005333H182.442667a48.896 48.896 0 0 0 0 97.621333h561.92c289.109333 0 434.346667-130.133333 434.346666-391.082666 0-272.213333-149.589333-393.642667-449.962666-393.642667l-239.018667 1.28z" p-id="1750" fill="#8a8a8a"></path></svg>