<?xml version="1.0" encoding="utf-8"?>
<svg version="1.1" xmlns:xlink="http://www.w3.org/1999/xlink" width="74px" height="32px" xmlns="http://www.w3.org/2000/svg">
  <defs>
    <mask fill="white" id="clip18">
      <path d="M 73.2968358093768 32  C 73.3001023785077 32  73.2986648799139 0  73.2968358093768 0  L 0 0  L 0 32  L 73.2968358093768 32  Z " fill-rule="evenodd" />
    </mask>
  </defs>
  <g transform="matrix(1 0 0 1 -101 -3 )">
    <path d="M 73.2968358093768 32  C 73.3001023785077 32  73.2986648799139 0  73.2968358093768 0  L 0 0  L 0 32  L 73.2968358093768 32  Z " fill-rule="nonzero" fill="#ffffff" stroke="none" transform="matrix(1 0 0 1 101 3 )" />
    <path d="M 73.2968358093768 32  C 73.3001023785077 32  73.2986648799139 0  73.2968358093768 0  L 0 0  L 0 32  L 73.2968358093768 32  Z " stroke-width="2" stroke="#d9d9d9" fill="none" transform="matrix(1 0 0 1 101 3 )" mask="url(#clip18)" />
  </g>
</svg>