<?xml version="1.0" encoding="utf-8"?>
<svg version="1.1" xmlns:xlink="http://www.w3.org/1999/xlink" width="8px" height="10px" xmlns="http://www.w3.org/2000/svg">
  <g transform="matrix(1 0 0 1 -12 -26 )">
    <path d="M 16 26  C 18.24 26  20 28.2  20 31  C 20 33.8  18.24 36  16 36  C 13.76 36  12 33.8  12 31  C 12 28.2  13.76 26  16 26  Z " fill-rule="nonzero" fill="#555555" stroke="none" />
    <path d="M 16 26.5  C 17.96 26.5  19.5 28.48  19.5 31  C 19.5 33.52  17.96 35.5  16 35.5  C 14.04 35.5  12.5 33.52  12.5 31  C 12.5 28.48  14.04 26.5  16 26.5  Z " stroke-width="1" stroke="#555555" fill="none" />
  </g>
</svg>