<svg t="1678412981283" class="icon" viewBox="0 0 1024 1024" version="1.1" xmlns="http://www.w3.org/2000/svg" p-id="1943" width="200" height="200"><path d="M867.872 832l19.424 19.424-67.872 67.84L732.128 832h-6.432l-87.296 87.296-67.904-67.872 19.424-19.424H128a32 32 0 0 1-32-32V192a64 64 0 0 1 64-64h198.592l95.872 96H928v576a32 32 0 0 1-32 32h-28.128z" fill="#FFFFFF" p-id="1944"></path><path d="M840.512 832l-29.856-32H896V256H486.624l51.072 51.072a16 16 0 0 1-22.624 22.624L441.376 256h-0.192l-95.872-96H160a32 32 0 0 0-32 32v608h523.072l-33.6 32H128a32 32 0 0 1-32-32V192a64 64 0 0 1 64-64h198.592l19.808 19.84 0.928 0.832L454.624 224H928v576a32 32 0 0 1-32 32h-55.488z" fill="#5D6D7E" p-id="1945"></path><path d="M796.8 760.896l90.496 90.528-67.872 67.84-90.528-90.496-90.496 90.528-67.904-67.872 90.528-90.528-90.528-90.496 67.904-67.904 90.496 90.528 90.528-90.528 67.84 67.904-90.496 90.496z m-45.28 0l90.528-90.496-22.624-22.624-90.528 90.496-90.496-90.496-22.624 22.624 90.496 90.496-90.496 90.528 22.624 22.624 90.496-90.528 90.528 90.528 22.624-22.624-90.528-90.528z" fill="#C49F74" p-id="1946"></path></svg>