<svg t="1678786402497" class="icon" viewBox="0 0 1024 1024" version="1.1" xmlns="http://www.w3.org/2000/svg" p-id="14147" width="200" height="200"><path d="M248.347716 909.696698c-10.680247 0-21.49557-0.379647-32.381501-1.165546-8.91402-0.60989-16.324804-7.17133-18.030655-15.953344-1.722224-8.794293 2.691295-17.656125 10.723226-21.577434 45.861514-22.49227 81.774445-54.432727 106.84954-94.972025C173.073312 715.231681 82.243631 595.513042 82.243631 466.00648 82.243631 272.086885 280.02109 114.303302 523.115664 114.303302c243.100714 0 440.879196 157.783583 440.879196 351.703177 0 193.932897-197.777459 351.71648-440.879196 351.71648-8.510838 0-16.951067-0.360204-25.329898-0.839111C435.930999 876.818893 347.74861 909.696698 248.347716 909.696698L248.347716 909.696698zM523.115664 153.925718c-221.250056 0-401.243477 140.009777-401.243477 312.080761 0 118.967532 89.588411 229.347478 228.236168 281.18817 5.263887 1.972934 9.448186 6.070252 11.491729 11.30037 2.053776 5.220908 1.803066 11.094686-0.714268 16.104793l-2.451842 5.100158c-2.152013 4.535293-4.321422 9.035794-6.935969 13.382798-17.21815 28.834722-39.002292 53.975309-65.090461 75.181283 76.221985-7.389294 142.511761-37.084617 189.435467-85.467557 4.010337-4.118807 9.502421-6.037507 15.425318-5.972015 10.510378 0.63138 21.113877 1.264806 31.847336 1.264806 221.25722 0 401.249617-139.989311 401.249617-312.082808C924.36528 293.936519 744.37186 153.925718 523.115664 153.925718L523.115664 153.925718z" fill="#8a8a8a" p-id="14148"></path><path d="M409.951301 474.344379c0 27.14422-22.001083 49.146327-49.14735 49.146327-27.145244 0-49.152467-22.001083-49.152467-49.146327 0-27.145244 22.007223-49.157583 49.152467-49.157583C387.949194 425.185772 409.951301 447.198112 409.951301 474.344379z" fill="#8a8a8a" p-id="14149"></path><path d="M577.858452 474.344379c0 27.14422-22.001083 49.146327-49.146327 49.146327-27.151383 0-49.15349-22.001083-49.15349-49.146327 0-27.145244 22.002107-49.157583 49.15349-49.157583C555.857369 425.185772 577.858452 447.198112 577.858452 474.344379z" fill="#8a8a8a" p-id="14150"></path><path d="M745.745137 474.344379c0 27.14422-22.007223 49.146327-49.152467 49.146327-27.146267 0-49.15349-22.001083-49.15349-49.146327 0-27.145244 22.007223-49.157583 49.15349-49.157583C723.737914 425.185772 745.745137 447.198112 745.745137 474.344379z" fill="#8a8a8a" p-id="14151"></path></svg>