<svg t="1678786016672" class="icon" viewBox="0 0 1024 1024" version="1.1" xmlns="http://www.w3.org/2000/svg" p-id="12944" width="200" height="200"><path d="M928 298.666667h-160V138.666667a53.393333 53.393333 0 0 0-53.333333-53.333334H309.333333a53.393333 53.393333 0 0 0-53.333333 53.333334v160H96a53.393333 53.393333 0 0 0-53.333333 53.333333v362.666667a53.393333 53.393333 0 0 0 53.333333 53.333333h160v160a53.393333 53.393333 0 0 0 53.333333 53.333333h405.333334a53.393333 53.393333 0 0 0 53.333333-53.333333v-160h160a53.393333 53.393333 0 0 0 53.333333-53.333333V352a53.393333 53.393333 0 0 0-53.333333-53.333333zM298.666667 138.666667a10.666667 10.666667 0 0 1 10.666666-10.666667h405.333334a10.666667 10.666667 0 0 1 10.666666 10.666667v160H298.666667z m426.666666 789.333333a10.666667 10.666667 0 0 1-10.666666 10.666667H309.333333a10.666667 10.666667 0 0 1-10.666666-10.666667V640h426.666666z m213.333334-213.333333a10.666667 10.666667 0 0 1-10.666667 10.666666h-160V640h64a21.333333 21.333333 0 0 0 0-42.666667H192a21.333333 21.333333 0 0 0 0 42.666667h64v85.333333H96a10.666667 10.666667 0 0 1-10.666667-10.666666V352a10.666667 10.666667 0 0 1 10.666667-10.666667h832a10.666667 10.666667 0 0 1 10.666667 10.666667z m-42.666667-309.333334a21.333333 21.333333 0 1 1-21.333333-21.333333 21.333333 21.333333 0 0 1 21.333333 21.333333z m-213.333333 298.666667a21.333333 21.333333 0 0 1-21.333334 21.333333H362.666667a21.333333 21.333333 0 0 1 0-42.666666h298.666666a21.333333 21.333333 0 0 1 21.333334 21.333333z m0 128a21.333333 21.333333 0 0 1-21.333334 21.333333h-42.666666a21.333333 21.333333 0 0 1 0-42.666666h42.666666a21.333333 21.333333 0 0 1 21.333334 21.333333z m-128 0a21.333333 21.333333 0 0 1-21.333334 21.333333H362.666667a21.333333 21.333333 0 0 1 0-42.666666h170.666666a21.333333 21.333333 0 0 1 21.333334 21.333333z" fill="#8a8a8a" p-id="12945"></path></svg>