<svg t="1612685293752" class="icon" viewBox="0 0 1024 1024" version="1.1" xmlns="http://www.w3.org/2000/svg" p-id="1765" width="16" height="16"><path d="M327.175 767.786H122.432c-42.33 0-76.778-34.448-76.778-76.779V76.779c0-42.33 34.448-76.778 76.778-76.778h716.601c42.33 0 76.778 34.448 76.778 76.778v358.3c0 14.127-11.466 25.593-25.593 25.593-14.128 0-25.593-11.466-25.593-25.593v-358.3c0-14.128-11.466-25.593-25.593-25.593H122.431c-14.127 0-25.593 11.465-25.593 25.593v614.228c0 14.128 11.466 25.594 25.593 25.594h204.743c14.128 0 25.593 11.465 25.593 25.593-0.001 14.126-11.466 25.593-25.593 25.593z m383.893 255.928c-10.135 0-19.757-6.092-23.751-16.071l-86.862-217.13-151.663 173.315c-7.012 8.036-18.273 10.852-28.255 7.114s-16.585-13.309-16.585-23.955V179.201c0-10.135 5.989-19.297 15.254-23.392s20.064-2.354 27.59 4.453l563.043 511.857c7.831 7.114 10.493 18.325 6.653 28.153-3.839 9.827-13.309 16.379-23.853 16.379H774.536l88.347 220.814c5.271 13.104-1.126 28-14.281 33.27l-127.964 51.186c-3.122 1.229-6.348 1.843-9.521 1.843l-0.051-0.05zM608.697 716.601c1.434 0 2.866 0.102 4.3 0.357 8.804 1.485 16.123 7.474 19.45 15.714l92.851 232.178 80.464-32.196-92.851-232.178a25.536 25.536 0 0 1 2.56-23.852c4.761-7.013 12.693-11.261 21.19-11.261h189.746L455.14 236.938v641.818L589.453 725.25c4.913-5.58 11.926-8.753 19.246-8.753v0.103z" p-id="1766" fill="#3083B9"></path></svg>