<?xml version="1.0" encoding="utf-8"?>
<svg version="1.1" xmlns:xlink="http://www.w3.org/1999/xlink" width="38px" height="38px" xmlns="http://www.w3.org/2000/svg">
  <g transform="matrix(1 0 0 1 -629 -140 )">
    <path d="M 648 140.5  C 658.36 140.5  666.5 148.64  666.5 159  C 666.5 169.36  658.36 177.5  648 177.5  C 637.64 177.5  629.5 169.36  629.5 159  C 629.5 148.64  637.64 140.5  648 140.5  Z " fill-rule="nonzero" fill="#ff6667" stroke="none" />
    <path d="M 648 140.5  C 658.36 140.5  666.5 148.64  666.5 159  C 666.5 169.36  658.36 177.5  648 177.5  C 637.64 177.5  629.5 169.36  629.5 159  C 629.5 148.64  637.64 140.5  648 140.5  Z " stroke-width="1" stroke="#015478" fill="none" stroke-opacity="0.717647058823529" />
  </g>
</svg>