<?xml version="1.0" encoding="utf-8"?>
<svg version="1.1" xmlns:xlink="http://www.w3.org/1999/xlink" width="206px" height="117px" xmlns="http://www.w3.org/2000/svg">
  <g transform="matrix(1 0 0 1 -354 -3024 )">
    <path d="M 354 3024  L 560 3024  L 560 3141  L 354 3141  L 354 3024  " fill-rule="nonzero" fill="#cccccc" stroke="none" />
    <path d="M 362 3032  L 552 3032  L 552 3133  L 362 3133  L 362 3032  " fill-rule="nonzero" fill="#ffffff" stroke="none" />
    <path d="M 469.895 3059.1  C 464.981 3059.1  461.12 3055.239  461.12 3050.325  C 461.12 3045.411  464.981 3041.55  469.895 3041.55  C 474.809 3041.55  478.67 3045.411  478.67 3050.325  C 478.67 3055.239  474.809 3059.1  469.895 3059.1  " fill-rule="nonzero" fill="#cccccc" stroke="none" />
    <path d="M 365 3130  L 365 3077.75  L 411 3054  L 475.4 3097.62621359223  L 512.2 3068.25  L 549 3097.62621359223  L 549 3130  L 365 3130  " fill-rule="nonzero" fill="#169bd5" stroke="none" />
  </g>
</svg>