<svg t="1685758648506" class="icon" viewBox="0 0 1024 1024" version="1.1" xmlns="http://www.w3.org/2000/svg" p-id="20789" width="32" height="32"><path d="M510.414861 41.213622c-208.354939 0-377.263158 169.284425-377.263158 378.104339C133.151703 628.146328 510.414861 1001.80805 510.414861 1001.80805S887.678019 628.146328 887.678019 419.317961c0-208.819913-168.908219-378.104338-377.263158-378.104339z m0 621.374613C375.593478 662.588235 266.303406 553.298163 266.303406 418.47678s109.290072-244.111455 244.111455-244.111455S754.526316 283.655397 754.526316 418.47678s-109.290072 244.111455-244.111455 244.111455z" fill="#10ACAE" p-id="20790"></path><path d="M652.599744 460.793659c-26.20341-1.551323-59.597011-42.384512-135.637201-45.487157-103.782241 11.890658-106.863752 64.09458-106.863752 64.09458s14.90031-7.236689 51.379649-18.607423c36.475112-11.370733 115.085342 2.067022 115.085341 2.067022s-84.773251-2.58272-145.913131 16.540401-129.47418 62.027558-129.474179 62.027558 63.194221-14.473379 84.257552-14.473379c21.063331 0 86.831818 30.49808 133.58286 31.013779 148.994642-2.067022 191.125531-105.443467 191.125532-105.443467s-31.339261 9.81941-57.542671 8.268086zM478.712074 263.133127C438.445309 263.133127 405.795666 295.78277 405.795666 336.049536s32.649643 72.916409 72.916408 72.916408c40.270993 0 72.916409-32.649643 72.916409-72.916408s-32.645416-72.916409-72.916409-72.916409z m0 120.314188c-26.17382 0-47.393552-21.223959-47.393552-47.397779s21.219732-47.397779 47.393552-47.39778 47.397779 21.223959 47.397779 47.39778-21.223959 47.397779-47.397779 47.397779z" fill="#10ACAE" p-id="20791"></path></svg>