<svg t="1605515534899" class="icon" viewBox="0 0 1024 1024" version="1.1" xmlns="http://www.w3.org/2000/svg" p-id="4308" width="32" height="32"><path d="M938.666667 876.088889c-53.096296 41.718519-111.881481 77.748148-176.355556 102.4V72.059259L354.607407 208.592593V166.874074L804.02963 0 938.666667 117.57037v758.518519z m-515.792593 140.325926c-75.851852-11.377778-147.911111-36.02963-214.281481-70.162963v-13.274074l214.281481-15.170371v98.607408z m237.037037-7.585185c-45.511111 9.481481-91.022222 15.17037-138.42963 15.17037-13.274074 0-24.651852 0-36.029629-1.896296V273.066667l-341.333333 111.881481v521.481482c-18.962963-13.274074-39.822222-28.444444-58.785186-45.511111V352.711111L538.548148 189.62963l121.362963 73.955555v745.244445zM210.488889 707.318519v-94.814815l214.281481-56.888889V663.703704L210.488889 707.318519z m0 161.185185v-92.918519L422.874074 739.555556v108.088888L210.488889 868.503704z m0-326.162963v-98.607408l214.281481-72.059259v111.881482L210.488889 542.340741z" fill="#FEC006" p-id="4309"></path></svg>