<?xml version="1.0" encoding="utf-8"?>
<svg version="1.1" xmlns:xlink="http://www.w3.org/1999/xlink" width="84px" height="84px" xmlns="http://www.w3.org/2000/svg">
  <g transform="matrix(1 0 0 1 -41 -73 )">
    <path d="M 42 77  A 3 3 0 0 1 45 74 L 121 74  A 3 3 0 0 1 124 77 L 124 153  A 3 3 0 0 1 121 156 L 45 156  A 3 3 0 0 1 42 153 L 42 77  Z " fill-rule="nonzero" fill="#ffffff" stroke="none" fill-opacity="0" />
    <path d="M 41.5 77  A 3.5 3.5 0 0 1 45 73.5 L 121 73.5  A 3.5 3.5 0 0 1 124.5 77 L 124.5 153  A 3.5 3.5 0 0 1 121 156.5 L 45 156.5  A 3.5 3.5 0 0 1 41.5 153 L 41.5 77  Z " stroke-width="1" stroke-dasharray="9,4" stroke="#d9d9d9" fill="none" stroke-dashoffset="0.5" />
  </g>
</svg>