<?xml version="1.0" encoding="utf-8"?>
<svg version="1.1" xmlns:xlink="http://www.w3.org/1999/xlink" width="256px" height="733px" xmlns="http://www.w3.org/2000/svg">
  <g transform="matrix(1 0 0 1 -1123 0 )">
    <path d="M 0.5 0  L 0.5 728.522565320665  C 0 730.469928741093  0.198936170212836 732  0.452127659574416 732.5  L 254.547872340426 732.5  C 254.801063829787 732  255 730.469928741093  255.5 728.522565320665  L 255.5 0  L 0.5 0  Z " fill-rule="nonzero" fill="#ffffff" stroke="none" transform="matrix(1 0 0 1 1123 0 )" />
    <path d="M 0.5 0  L 0.5 728.522565320665  C 0 730.469928741093  0.198936170212836 732  0.452127659574416 732.5  L 254.547872340426 732.5  C 254.801063829787 732  255 730.469928741093  255.5 728.522565320665  L 255.5 0  " stroke-width="1" stroke="#e9e9e9" fill="none" transform="matrix(1 0 0 1 1123 0 )" />
  </g>
</svg>