<svg t="1666056342831" class="icon" viewBox="0 0 1024 1024" version="1.1" xmlns="http://www.w3.org/2000/svg" p-id="7145" width="200" height="200"><path d="M341.357714 533.357714a64 64 0 1 0 0 128 64 64 0 0 0 0-128z" fill="#00A6AB" p-id="7146"></path><path d="M981.357714 0H42.642286A42.642286 42.642286 0 0 0 0 42.642286v938.715428c0 23.552 19.090286 42.642286 42.642286 42.642286h938.715428a42.642286 42.642286 0 0 0 42.642286-42.642286V42.642286A42.642286 42.642286 0 0 0 981.357714 0zM384 739.84v28.16a42.642286 42.642286 0 0 1-85.357714 0v-28.16a148.48 148.48 0 0 1 0-285.037714V256a42.642286 42.642286 0 0 1 85.357714 0v198.802286a148.48 148.48 0 0 1 0 285.037714z m341.357714-170.642286V768a42.642286 42.642286 0 0 1-85.357714 0V569.197714a148.48 148.48 0 0 1 0-285.037714V256a42.642286 42.642286 0 0 1 85.357714 0v28.16a148.48 148.48 0 0 1 0 285.037714z" fill="#00A6AB" p-id="7147"></path><path d="M682.642286 362.642286a63.634286 63.634286 0 0 0-42.642286 16.676571 63.122286 63.122286 0 0 0 0 94.72 63.634286 63.634286 0 0 0 42.642286 16.603429 64 64 0 0 0 0-128z" fill="#00A6AB" p-id="7148"></path></svg>