<svg t="1666056519562" class="icon" viewBox="0 0 1024 1024" version="1.1" xmlns="http://www.w3.org/2000/svg" p-id="8519" width="200" height="200"><path d="M890.88 47.104H120.832c-47.104 0-86.016 36.864-86.016 81.92v778.24c0 45.056 38.912 81.92 86.016 81.92h770.048c47.104 0 86.016-36.864 86.016-81.92v-778.24c0-45.056-38.912-81.92-86.016-81.92z" fill="#3740E2" p-id="8520"></path><path d="M495.616 137.216L159.744 425.984l12.288 428.032L573.44 878.592l260.096-20.48 30.72-186.368-14.336-239.616z" fill="#FFFFFF" p-id="8521"></path><path d="M792.576 925.696h-552.96c-59.392 0-106.496-49.152-106.496-108.544V454.656c0-30.72 14.336-61.44 36.864-81.92L444.416 131.072c40.96-34.816 100.352-34.816 139.264 0L860.16 374.784c24.576 20.48 36.864 51.2 36.864 81.92V819.2c2.048 57.344-45.056 106.496-104.448 106.496zM516.096 186.368c-6.144 0-12.288 2.048-16.384 6.144L221.184 436.224c-6.144 4.096-8.192 12.288-8.192 18.432v362.496c0 14.336 12.288 24.576 24.576 24.576h552.96c14.336 0 24.576-12.288 24.576-24.576V454.656c0-8.192-4.096-14.336-8.192-18.432L532.48 192.512c-6.144-4.096-12.288-6.144-16.384-6.144z" fill="#5F72FF" p-id="8522"></path><path d="M690.176 608.256h-327.68c-22.528 0-40.96-18.432-40.96-40.96s18.432-40.96 40.96-40.96h327.68c22.528 0 40.96 18.432 40.96 40.96-2.048 22.528-18.432 40.96-40.96 40.96zM606.208 458.752h-163.84c-22.528 0-40.96-18.432-40.96-40.96s18.432-40.96 40.96-40.96h163.84c22.528 0 40.96 18.432 40.96 40.96s-18.432 40.96-40.96 40.96zM690.176 770.048h-327.68c-22.528 0-40.96-18.432-40.96-40.96s18.432-40.96 40.96-40.96h327.68c22.528 0 40.96 18.432 40.96 40.96-2.048 22.528-18.432 40.96-40.96 40.96z" fill="#FF6B1E" p-id="8523"></path><path d="M696.32 616.448H368.64c-22.528 0-40.96-18.432-40.96-40.96s18.432-40.96 40.96-40.96h327.68c22.528 0 40.96 18.432 40.96 40.96s-18.432 40.96-40.96 40.96zM614.4 466.944h-163.84c-22.528 0-40.96-18.432-40.96-40.96s18.432-40.96 40.96-40.96h163.84c22.528 0 40.96 18.432 40.96 40.96s-18.432 40.96-40.96 40.96zM696.32 778.24H368.64c-22.528 0-40.96-18.432-40.96-40.96s18.432-40.96 40.96-40.96h327.68c22.528 0 40.96 18.432 40.96 40.96s-18.432 40.96-40.96 40.96z" fill="#FF6B1E" opacity=".15" p-id="8524"></path></svg>