<svg t="1666056636654" class="icon" viewBox="0 0 1024 1024" version="1.1" xmlns="http://www.w3.org/2000/svg" p-id="11508" width="200" height="200"><path d="M920.200788 0.499756H103.299665C46.227532 0.499756-0.049871 46.77716 0.05008 103.749341v817.001074c0 56.972182 46.177452 103.249585 103.249585 103.249585h816.901123c56.972182 0 103.249585-46.277404 103.249585-103.349536V103.749341c0-56.972182-46.177452-103.249585-103.249585-103.249585zM246.829582 360.024207l-19.490483-7.896145c-0.399805 1.299366-0.999512 2.49878-1.69917 3.698195-0.199902 0.399805-25.08775 42.479258-37.181845 107.247633-16.092143 86.05798-3.398341 169.71713 37.781552 248.578623 4.99756 9.495364 1.299366 21.189653-8.195998 26.187214-2.898585 1.499268-5.997072 2.198926-8.995608 2.198926-6.996584 0-13.693314-3.798145-17.191605-10.394924-25.08775-47.876623-40.680137-98.451928-46.377355-150.126696-4.597755-41.379795-2.898585-83.5592 5.097511-125.238849 12.293997-64.36857 35.582626-107.647438 40.780088-116.742996l-20.789849-8.395901c-10.594827-4.297901-12.293997-18.590922-2.998536-25.187701l62.569449-44.778136c8.695754-6.196974 20.789849-1.299366 22.688921 9.19551l13.693314 75.663056c1.999024 11.294485-9.19551 20.290093-19.690386 15.992191z m424.792582 418.995412H346.480924c-10.694778 0-19.390532-8.695754-19.390532-19.390532s8.695754-19.390532 19.390532-19.390532h325.041289c10.694778 0 19.390532 8.695754 19.390532 19.390532s-8.595803 19.390532-19.290581 19.390532z m5.297413-164.919473H351.878289c-10.694778 0-19.390532-8.695754-19.390532-19.390532s8.695754-19.390532 19.390532-19.390532h325.041288c10.694778 0 19.390532 8.695754 19.390532 19.390532s-8.695754 19.390532-19.390532 19.390532z m0-164.919473H351.878289c-10.694778 0-19.390532-8.695754-19.390532-19.390531s8.695754-19.390532 19.390532-19.390532h325.041288c10.694778 0 19.390532 8.695754 19.390532 19.390532s-8.695754 19.390532-19.390532 19.390531z m0-164.919472H351.878289c-10.694778 0-19.390532-8.695754-19.390532-19.390532s8.695754-19.390532 19.390532-19.390532h325.041288c10.694778 0 19.390532 8.695754 19.390532 19.390532s-8.695754 19.390532-19.390532 19.390532z m202.601074 290.558126c-12.293997 64.36857-35.582626 107.647438-40.780088 116.742996l20.789849 8.395901c10.594827 4.297901 12.293997 18.590922 2.998536 25.187701l-62.569449 44.778136c-8.695754 6.196974-20.789849 1.299366-22.688921-9.19551l-13.693314-75.663056c-1.999024-11.194534 9.095559-20.290093 19.690386-15.992191l19.490483 7.896145c0.399805-1.299366 0.999512-2.49878 1.69917-3.698195 0.499756-0.899561 25.08775-42.779112 37.181845-107.247633 16.092143-86.05798 3.398341-169.71713-37.781552-248.578623-4.99756-9.495364-1.299366-21.189653 8.195998-26.187214s21.189653-1.299366 26.187213 8.195998c25.08775 47.876623 40.680137 98.451928 46.377355 150.126696 4.497804 41.379795 2.798633 83.459248-5.097511 125.238849z" fill="#11AAED" p-id="11509"></path></svg>