<svg t="1666056943099" class="icon" viewBox="0 0 1024 1024" version="1.1" xmlns="http://www.w3.org/2000/svg" p-id="15703" width="200" height="200"><path d="M0 0h1024v1024H0V0z" fill="#FFBB4D" p-id="15704"></path><path d="M448 512c58.666667 0 106.666667-48 106.666667-106.666667s-48-106.666667-106.666667-106.666666-106.666667 48-106.666667 106.666666 48 106.666667 106.666667 106.666667z m39.466667 21.333333h-78.933334C324.266667 533.333333 256 601.6 256 685.866667c0 34.133333 27.733333 60.8 60.8 60.8h262.4c34.133333 0 60.8-27.733333 60.8-60.8C640 601.6 571.733333 533.333333 487.466667 533.333333z" fill="#FFFFFF" p-id="15705"></path><path d="M602.666667 448c50.133333 0 90.666667-40.533333 90.666666-90.666667S652.8 266.666667 602.666667 266.666667 512 307.2 512 357.333333s40.533333 90.666667 90.666667 90.666667z m36.266666 21.333333h-71.466666C494.933333 469.333333 437.333333 526.933333 437.333333 598.4c0 28.8 23.466667 52.266667 52.266667 52.266667h227.2c28.8 0 52.266667-23.466667 52.266667-52.266667C768 526.933333 710.4 469.333333 638.933333 469.333333z" fill="#FFFFFF" opacity=".5" p-id="15706"></path><path d="M0 0h1024v1024H0V0z" fill="#5C9EFF" p-id="15707"></path><path d="M304 421.333333h300.8l-32-89.6c-7.466667-21.333333-30.933333-38.4-52.266667-38.4H298.666667c-18.133333 0-28.8 12.8-26.666667 29.866667v172.8c0 18.133333 13.866667 32 32 32v-106.666667z" fill="#FFFFFF" opacity=".5" p-id="15708"></path><path d="M709.333333 357.333333h-437.333333v330.666667c0 23.466667 19.2 42.666667 42.666667 42.666667h394.666666c23.466667 0 42.666667-19.2 42.666667-42.666667v-288c0-23.466667-19.2-42.666667-42.666667-42.666667z m-74.666666 256h-245.333334c-11.733333 0-21.333333-9.6-21.333333-21.333333s9.6-21.333333 21.333333-21.333333h245.333334c11.733333 0 21.333333 9.6 21.333333 21.333333s-9.6 21.333333-21.333333 21.333333z m0-106.666666h-245.333334c-11.733333 0-21.333333-9.6-21.333333-21.333334s9.6-21.333333 21.333333-21.333333h245.333334c11.733333 0 21.333333 9.6 21.333333 21.333333s-9.6 21.333333-21.333333 21.333334z" fill="#FFFFFF" p-id="15709"></path><path d="M389.333333 506.666667h245.333334c11.733333 0 21.333333-9.6 21.333333-21.333334s-9.6-21.333333-21.333333-21.333333h-245.333334c-11.733333 0-21.333333 9.6-21.333333 21.333333s9.6 21.333333 21.333333 21.333334zM634.666667 570.666667h-245.333334c-11.733333 0-21.333333 9.6-21.333333 21.333333s9.6 21.333333 21.333333 21.333333h245.333334c11.733333 0 21.333333-9.6 21.333333-21.333333s-9.6-21.333333-21.333333-21.333333z" fill="#FFFFFF" opacity=".5" p-id="15710"></path><path d="M0 0h1024v1024H0V0z" fill="#FFBB4D" p-id="15711"></path><path d="M576 437.333333H362.666667c-11.733333 0-21.333333 9.6-21.333334 21.333334s9.6 21.333333 21.333334 21.333333h213.333333c11.733333 0 21.333333-9.6 21.333333-21.333333s-9.6-21.333333-21.333333-21.333334zM469.333333 522.666667H362.666667c-11.733333 0-21.333333 9.6-21.333334 21.333333s9.6 21.333333 21.333334 21.333333h106.666666c11.733333 0 21.333333-9.6 21.333334-21.333333s-9.6-21.333333-21.333334-21.333333zM384 608h-21.333333c-11.733333 0-21.333333 9.6-21.333334 21.333333s9.6 21.333333 21.333334 21.333334h21.333333c11.733333 0 21.333333-9.6 21.333333-21.333334s-9.6-21.333333-21.333333-21.333333z" fill="#FFFFFF" opacity=".5" p-id="15712"></path><path d="M742.4 368L536.533333 256c0-1.066667-1.066667-3.2-2.133333-4.266667-4.266667-8.533333-13.866667-11.733333-22.4-8.533333h-1.066667c-8.533333-5.333333-20.266667-2.133333-25.6 7.466667-2.133333 3.2-2.133333 5.333333-2.133333 8.533333L278.4 373.333333c-8.533333 5.333333-11.733333 17.066667-6.4 25.6 5.333333 9.6 17.066667 12.8 25.6 7.466667l215.466667-120.533333 211.2 115.2c8.533333 5.333333 20.266667 2.133333 25.6-7.466667 4.266667-8.533333 2.133333-20.266667-7.466667-25.6z" fill="#FFFFFF" opacity=".5" p-id="15713"></path><path d="M725.333333 352H298.666667c-23.466667 0-42.666667 19.2-42.666667 42.666667v288c0 23.466667 19.2 42.666667 42.666667 42.666666h426.666666c23.466667 0 42.666667-19.2 42.666667-42.666666V394.666667c0-23.466667-19.2-42.666667-42.666667-42.666667zM384 650.666667h-21.333333c-11.733333 0-21.333333-9.6-21.333334-21.333334s9.6-21.333333 21.333334-21.333333h21.333333c11.733333 0 21.333333 9.6 21.333333 21.333333s-9.6 21.333333-21.333333 21.333334z m85.333333-85.333334H362.666667c-11.733333 0-21.333333-9.6-21.333334-21.333333s9.6-21.333333 21.333334-21.333333h106.666666c11.733333 0 21.333333 9.6 21.333334 21.333333s-9.6 21.333333-21.333334 21.333333z m106.666667-85.333333H362.666667c-11.733333 0-21.333333-9.6-21.333334-21.333333s9.6-21.333333 21.333334-21.333334h213.333333c11.733333 0 21.333333 9.6 21.333333 21.333334s-9.6 21.333333-21.333333 21.333333z" fill="#FFFFFF" p-id="15714"></path><path d="M0 0h1024v1024H0V0z" fill="#FF8A98" p-id="15715"></path><path d="M638.933333 442.666667c-9.6-9.6-24.533333-9.6-34.133333 0l-138.666667 138.666666-57.6-57.6c-9.6-9.6-24.533333-9.6-34.133333 0-9.6 9.6-9.6 24.533333 0 34.133334l74.666667 74.666666c9.6 9.6 24.533333 9.6 34.133333 0l155.733333-155.733333c9.6-9.6 9.6-24.533333 0-34.133333z" fill="#FFFFFF" opacity=".5" p-id="15716"></path><path d="M720 352h-416c-23.466667 0-42.666667 19.2-42.666667 42.666667v298.666666c0 23.466667 19.2 42.666667 42.666667 42.666667h416c23.466667 0 42.666667-19.2 42.666667-42.666667V394.666667c0-23.466667-19.2-42.666667-42.666667-42.666667z m-81.066667 124.8L483.2 632.533333c-9.6 9.6-24.533333 9.6-34.133333 0l-74.666667-74.666666c-9.6-9.6-9.6-24.533333 0-34.133334 9.6-9.6 24.533333-9.6 34.133333 0l57.6 57.6 138.666667-138.666666c9.6-9.6 24.533333-9.6 34.133333 0 9.6 9.6 9.6 24.533333 0 34.133333z" fill="#FFFFFF" p-id="15717"></path><path d="M357.333333 298.666667h298.666667c23.466667 0 42.666667 19.2 42.666667 42.666666v10.666667h-384v-10.666667c0-23.466667 19.2-42.666667 42.666666-42.666666z" fill="#FFFFFF" opacity=".5" p-id="15718"></path><path d="M400 256h224c23.466667 0 42.666667 19.2 42.666667 42.666667h-309.333334s19.2-42.666667 42.666667-42.666667z" fill="#FFFFFF" opacity=".25" p-id="15719"></path><path d="M0 0h1024v1024H0V0z" fill="#FFBB4D" p-id="15720"></path><path d="M549.333333 437.333333h-213.333333c-11.733333 0-21.333333 9.6-21.333333 21.333334s9.6 21.333333 21.333333 21.333333h213.333333c11.733333 0 21.333333-9.6 21.333334-21.333333s-9.6-21.333333-21.333334-21.333334zM464 512h-128c-11.733333 0-21.333333 9.6-21.333333 21.333333s9.6 21.333333 21.333333 21.333334h128c11.733333 0 21.333333-9.6 21.333333-21.333334s-9.6-21.333333-21.333333-21.333333zM400 586.666667h-64c-11.733333 0-21.333333 9.6-21.333333 21.333333s9.6 21.333333 21.333333 21.333333h64c11.733333 0 21.333333-9.6 21.333333-21.333333s-9.6-21.333333-21.333333-21.333333z" fill="#FFFFFF" opacity=".5" p-id="15721"></path><path d="M798.933333 485.333333c-9.6-9.6-24.533333-9.6-34.133333 0l-138.666667 138.666667-57.6-57.6c-9.6-9.6-24.533333-9.6-34.133333 0-9.6 9.6-9.6 24.533333 0 34.133333l74.666667 74.666667c9.6 9.6 24.533333 9.6 34.133333 0l155.733333-155.733333c9.6-9.6 9.6-24.533333 0-34.133334z" fill="#FFFFFF" opacity=".5" p-id="15722"></path><path d="M642.133333 675.2c-9.6 9.6-24.533333 9.6-34.133333 0l-74.666667-74.666667c-9.6-9.6-9.6-24.533333 0-34.133333 9.6-9.6 24.533333-9.6 34.133334 0l57.6 57.6 136.533333-136.533333V394.666667c0-23.466667-19.2-42.666667-42.666667-42.666667h-416c-23.466667 0-42.666667 19.2-42.666666 42.666667v298.666666c0 23.466667 19.2 42.666667 42.666666 42.666667h416c23.466667 0 42.666667-19.2 42.666667-42.666667V555.733333L642.133333 675.2zM336 437.333333h213.333333c11.733333 0 21.333333 9.6 21.333334 21.333334s-9.6 21.333333-21.333334 21.333333h-213.333333c-11.733333 0-21.333333-9.6-21.333333-21.333333s9.6-21.333333 21.333333-21.333334z m64 192h-64c-11.733333 0-21.333333-9.6-21.333333-21.333333s9.6-21.333333 21.333333-21.333333h64c11.733333 0 21.333333 9.6 21.333333 21.333333s-9.6 21.333333-21.333333 21.333333z m64-74.666666h-128c-11.733333 0-21.333333-9.6-21.333333-21.333334s9.6-21.333333 21.333333-21.333333h128c11.733333 0 21.333333 9.6 21.333333 21.333333s-9.6 21.333333-21.333333 21.333334z" fill="#FFFFFF" p-id="15723"></path><path d="M357.333333 298.666667h298.666667c23.466667 0 42.666667 19.2 42.666667 42.666666v10.666667h-384v-10.666667c0-23.466667 19.2-42.666667 42.666666-42.666666z" fill="#FFFFFF" opacity=".5" p-id="15724"></path><path d="M400 256h224c23.466667 0 42.666667 19.2 42.666667 42.666667h-309.333334s19.2-42.666667 42.666667-42.666667z" fill="#FFFFFF" opacity=".25" p-id="15725"></path><path d="M0 0h1024v1024H0V0z" fill="#FF8A98" p-id="15726"></path><path d="M626.133333 522.666667h-5.333333c0-88.533333-73.6-160-165.333333-160-75.733333 0-139.733333 50.133333-158.933334 117.333333h-1.066666c-61.866667 0-112 50.133333-112 112 0 59.733333 46.933333 108.8 106.666666 112h336c50.133333 0 90.666667-40.533333 90.666667-90.666667S676.266667 522.666667 626.133333 522.666667z m-154.666666 39.466666v75.733334c0 12.8-9.6 23.466667-21.333334 23.466666s-21.333333-10.666667-21.333333-23.466666v-75.733334H384l66.133333-78.933333 72.533334 78.933333h-51.2z" fill="#FFFFFF" p-id="15727"></path><path d="M755.2 425.6c0-88.533333-71.466667-160-160-160-52.266667 0-98.133333 25.6-128 64 91.733333 0 168.533333 65.066667 187.733333 151.466667 57.6 10.666667 100.266667 60.8 100.266667 120.533333v5.333333c48-2.133333 85.333333-41.6 85.333333-90.666666 0-48-37.333333-87.466667-85.333333-90.666667zM471.466667 562.133333v75.733334c0 12.8-9.6 23.466667-21.333334 23.466666s-21.333333-10.666667-21.333333-23.466666v-75.733334H384l66.133333-78.933333 72.533334 78.933333h-51.2z" fill="#FFFFFF" opacity=".5" p-id="15728"></path><path d="M0 0h1024v1024H0V0z" fill="#FFBB4D" p-id="15729"></path><path d="M602.666667 464c65.066667 0 117.333333 52.266667 117.333333 117.333333s-52.266667 117.333333-117.333333 117.333334-117.333333-52.266667-117.333334-117.333334 52.266667-117.333333 117.333334-117.333333z" fill="#FFFFFF" opacity=".5" p-id="15730"></path><path d="M656 560h-32v-42.666667c0-11.733333-9.6-21.333333-21.333333-21.333333s-21.333333 9.6-21.333334 21.333333v64c0 11.733333 9.6 21.333333 21.333334 21.333334h53.333333c11.733333 0 21.333333-9.6 21.333333-21.333334s-9.6-21.333333-21.333333-21.333333z" fill="#FFFFFF" p-id="15731"></path><path d="M709.333333 357.333333h-437.333333v330.666667c0 23.466667 19.2 42.666667 42.666667 42.666667h394.666666c23.466667 0 42.666667-19.2 42.666667-42.666667v-288c0-23.466667-19.2-42.666667-42.666667-42.666667z m-320 256c-11.733333 0-21.333333-9.6-21.333333-21.333333s9.6-21.333333 21.333333-21.333333h65.066667c0 3.2-1.066667 7.466667-1.066667 10.666666 0 10.666667 1.066667 21.333333 3.2 32h-67.2z m0-106.666666c-11.733333 0-21.333333-9.6-21.333333-21.333334s9.6-21.333333 21.333333-21.333333h121.6c-14.933333 11.733333-27.733333 26.666667-37.333333 42.666667h-84.266667z m213.333334 192c-65.066667 0-117.333333-52.266667-117.333334-117.333334s52.266667-117.333333 117.333334-117.333333 117.333333 52.266667 117.333333 117.333333-52.266667 117.333333-117.333333 117.333334z" fill="#FFFFFF" p-id="15732"></path><path d="M486.4 570.666667h-97.066667c-11.733333 0-21.333333 9.6-21.333333 21.333333s9.6 21.333333 21.333333 21.333333h100.266667c-3.2-10.666667-4.266667-21.333333-4.266667-32 0-3.2 0-7.466667 1.066667-10.666666zM634.666667 464h-32c18.133333 0 35.2 4.266667 51.2 11.733333-3.2-6.4-10.666667-11.733333-19.2-11.733333zM368 485.333333c0 11.733333 9.6 21.333333 21.333333 21.333334H512c21.333333-25.6 54.4-42.666667 90.666667-42.666667h-213.333334c-11.733333 0-21.333333 9.6-21.333333 21.333333z" fill="#FFFFFF" opacity=".5" p-id="15733"></path><path d="M293.333333 410.666667h307.2l-28.8-78.933334c-7.466667-21.333333-30.933333-38.4-52.266666-38.4H298.666667c-18.133333 0-28.8 12.8-26.666667 29.866667v172.8c0 13.866667 8.533333 25.6 21.333333 29.866667V410.666667z" fill="#FFFFFF" opacity=".5" p-id="15734"></path><path d="M0 0h1024v1024H0V0z" fill="#38E084" p-id="15735"></path><path d="M702.933333 322.133333c-3.2 0-8.533333 0-16-1.066666s-19.2-3.2-37.333333-6.4c-17.066667-3.2-34.133333-8.533333-49.066667-13.866667-36.266667-14.933333-65.066667-29.866667-87.466666-45.866667L501.333333 245.333333l-12.8 9.6c-22.4 16-51.2 30.933333-87.466666 45.866667-14.933333 6.4-30.933333 10.666667-49.066667 13.866667-17.066667 3.2-29.866667 5.333333-37.333333 6.4-7.466667 1.066667-12.8 1.066667-16 1.066666l-21.333334 1.066667v224c0 26.666667 7.466667 54.4 23.466667 83.2 16 28.8 35.2 54.4 58.666667 75.733333s48 38.4 73.6 52.266667C458.666667 772.266667 482.133333 778.666667 501.333333 778.666667c19.2 0 42.666667-6.4 68.266667-20.266667 25.6-13.866667 50.133333-30.933333 73.6-52.266667 23.466667-21.333333 42.666667-45.866667 58.666667-75.733333 16-28.8 23.466667-56.533333 23.466666-83.2v-224l-22.4-1.066667zM394.666667 618.666667c-11.733333 0-21.333333-9.6-21.333334-21.333334s9.6-21.333333 21.333334-21.333333 21.333333 9.6 21.333333 21.333333-9.6 21.333333-21.333333 21.333334z m0-96c-11.733333 0-21.333333-9.6-21.333334-21.333334s9.6-21.333333 21.333334-21.333333 21.333333 9.6 21.333333 21.333333-9.6 21.333333-21.333333 21.333334z m0-85.333334c-11.733333 0-21.333333-9.6-21.333334-21.333333s9.6-21.333333 21.333334-21.333333 21.333333 9.6 21.333333 21.333333-9.6 21.333333-21.333333 21.333333z m202.666666 181.333334H480c-11.733333 0-21.333333-9.6-21.333333-21.333334s9.6-21.333333 21.333333-21.333333h117.333333c11.733333 0 21.333333 9.6 21.333334 21.333333s-9.6 21.333333-21.333334 21.333334z m0-96H480c-11.733333 0-21.333333-9.6-21.333333-21.333334s9.6-21.333333 21.333333-21.333333h117.333333c11.733333 0 21.333333 9.6 21.333334 21.333333s-9.6 21.333333-21.333334 21.333334z m0-85.333334H480c-11.733333 0-21.333333-9.6-21.333333-21.333333s9.6-21.333333 21.333333-21.333333h117.333333c11.733333 0 21.333333 9.6 21.333334 21.333333s-9.6 21.333333-21.333334 21.333333z" fill="#FFFFFF" p-id="15736"></path><path d="M394.666667 394.666667c-11.733333 0-21.333333 9.6-21.333334 21.333333s9.6 21.333333 21.333334 21.333333 21.333333-9.6 21.333333-21.333333-9.6-21.333333-21.333333-21.333333zM394.666667 480c-11.733333 0-21.333333 9.6-21.333334 21.333333s9.6 21.333333 21.333334 21.333334 21.333333-9.6 21.333333-21.333334-9.6-21.333333-21.333333-21.333333zM480 437.333333h117.333333c11.733333 0 21.333333-9.6 21.333334-21.333333s-9.6-21.333333-21.333334-21.333333H480c-11.733333 0-21.333333 9.6-21.333333 21.333333s9.6 21.333333 21.333333 21.333333zM597.333333 480H480c-11.733333 0-21.333333 9.6-21.333333 21.333333s9.6 21.333333 21.333333 21.333334h117.333333c11.733333 0 21.333333-9.6 21.333334-21.333334s-9.6-21.333333-21.333334-21.333333zM394.666667 576c-11.733333 0-21.333333 9.6-21.333334 21.333333s9.6 21.333333 21.333334 21.333334 21.333333-9.6 21.333333-21.333334-9.6-21.333333-21.333333-21.333333zM597.333333 576H480c-11.733333 0-21.333333 9.6-21.333333 21.333333s9.6 21.333333 21.333333 21.333334h117.333333c11.733333 0 21.333333-9.6 21.333334-21.333334s-9.6-21.333333-21.333334-21.333333z" fill="#FFFFFF" opacity=".5" p-id="15737"></path><path d="M778.666667 362.666667s-43.733333-1.066667-32 0c-8.533333 0-36.266667-1.066667-56.533334-4.266667-21.333333-3.2-40.533333-7.466667-58.666666-12.8-42.666667-12.8-77.866667-25.6-103.466667-39.466667L512 298.666667l-9.6 5.333333v88.533333H597.333333c11.733333 0 21.333333 9.6 21.333334 21.333334s-9.6 21.333333-21.333334 21.333333h-94.933333v42.666667H597.333333c11.733333 0 21.333333 9.6 21.333334 21.333333s-9.6 21.333333-21.333334 21.333333h-94.933333v53.333334H597.333333c11.733333 0 21.333333 9.6 21.333334 21.333333s-9.6 21.333333-21.333334 21.333333h-94.933333v158.933334c3.2 0 6.4 1.066667 9.6 1.066666 23.466667 0 50.133333-6.4 81.066667-18.133333 30.933333-11.733333 59.733333-26.666667 87.466666-44.8 27.733333-18.133333 51.2-39.466667 69.333334-65.066667 19.2-24.533333 28.8-49.066667 28.8-71.466666V362.666667z" fill="#FFFFFF" opacity=".5" p-id="15738"></path><path d="M801.066667 402.133333c-4.266667 0-11.733333 0-21.333334-1.066666v176c0 22.4-9.6 46.933333-28.8 71.466666-19.2 24.533333-42.666667 45.866667-69.333333 65.066667-27.733333 18.133333-56.533333 33.066667-87.466667 44.8-29.866667 11.733333-55.466667 17.066667-78.933333 17.066667h3.2c27.733333 0 59.733333-5.333333 96-17.066667 36.266667-11.733333 70.4-25.6 103.466667-42.666667 32-17.066667 59.733333-38.4 82.133333-61.866666 20.266667-22.4 32-45.866667 32-67.2V403.2l-30.933333-1.066667z" fill="#FFFFFF" opacity=".25" p-id="15739"></path><path d="M0 0h1024v1024H0V0z" fill="#FFBB4D" p-id="15740"></path><path d="M717.866667 349.866667L523.733333 256c-12.8-7.466667-28.8-7.466667-41.6 0L288 349.866667c-12.8 7.466667-20.266667 21.333333-20.266667 36.266666v251.733334c0 14.933333 7.466667 28.8 20.266667 36.266666L482.133333 768c12.8 7.466667 28.8 7.466667 41.6 0l194.133334-93.866667c12.8-7.466667 20.266667-21.333333 20.266666-36.266666V386.133333c1.066667-14.933333-7.466667-28.8-20.266666-36.266666zM395.733333 618.666667c-11.733333 0-21.333333-9.6-21.333333-21.333334s9.6-21.333333 21.333333-21.333333 21.333333 9.6 21.333334 21.333333-9.6 21.333333-21.333334 21.333334z m0-96c-11.733333 0-21.333333-9.6-21.333333-21.333334s9.6-21.333333 21.333333-21.333333 21.333333 9.6 21.333334 21.333333-9.6 21.333333-21.333334 21.333334z m0-85.333334c-11.733333 0-21.333333-9.6-21.333333-21.333333s9.6-21.333333 21.333333-21.333333 21.333333 9.6 21.333334 21.333333-9.6 21.333333-21.333334 21.333333z m202.666667 181.333334h-117.333333c-11.733333 0-21.333333-9.6-21.333334-21.333334s9.6-21.333333 21.333334-21.333333h117.333333c11.733333 0 21.333333 9.6 21.333333 21.333333s-9.6 21.333333-21.333333 21.333334z m0-96h-117.333333c-11.733333 0-21.333333-9.6-21.333334-21.333334s9.6-21.333333 21.333334-21.333333h117.333333c11.733333 0 21.333333 9.6 21.333333 21.333333s-9.6 21.333333-21.333333 21.333334z m0-85.333334h-117.333333c-11.733333 0-21.333333-9.6-21.333334-21.333333s9.6-21.333333 21.333334-21.333333h117.333333c11.733333 0 21.333333 9.6 21.333333 21.333333s-9.6 21.333333-21.333333 21.333333z" fill="#FFFFFF" p-id="15741"></path><path d="M395.733333 416m-21.333333 0a21.333333 21.333333 0 1 0 42.666667 0 21.333333 21.333333 0 1 0-42.666667 0Z" fill="#FFFFFF" opacity=".5" p-id="15742"></path><path d="M395.733333 501.333333m-21.333333 0a21.333333 21.333333 0 1 0 42.666667 0 21.333333 21.333333 0 1 0-42.666667 0Z" fill="#FFFFFF" opacity=".5" p-id="15743"></path><path d="M481.066667 437.333333h117.333333c11.733333 0 21.333333-9.6 21.333333-21.333333s-9.6-21.333333-21.333333-21.333333h-117.333333c-11.733333 0-21.333333 9.6-21.333334 21.333333s9.6 21.333333 21.333334 21.333333zM598.4 480h-117.333333c-11.733333 0-21.333333 9.6-21.333334 21.333333s9.6 21.333333 21.333334 21.333334h117.333333c11.733333 0 21.333333-9.6 21.333333-21.333334s-9.6-21.333333-21.333333-21.333333zM395.733333 576c-11.733333 0-21.333333 9.6-21.333333 21.333333s9.6 21.333333 21.333333 21.333334 21.333333-9.6 21.333334-21.333334-9.6-21.333333-21.333334-21.333333zM598.4 576h-117.333333c-11.733333 0-21.333333 9.6-21.333334 21.333333s9.6 21.333333 21.333334 21.333334h117.333333c11.733333 0 21.333333-9.6 21.333333-21.333334s-9.6-21.333333-21.333333-21.333333z" fill="#FFFFFF" opacity=".5" p-id="15744"></path><path d="M517.333333 771.2L778.666667 688c8.533333-3.2 13.866667-10.666667 13.866666-20.266667V427.733333c0-11.733333-9.6-21.333333-22.4-21.333333l-32 1.066667v230.4c0 14.933333-7.466667 28.8-20.266666 36.266666l-200.533334 97.066667" fill="#FFFFFF" opacity=".5" p-id="15745"></path><path d="M822.4 455.466667l-28.8 1.066666v211.2c0 8.533333-5.333333 17.066667-13.866667 20.266667l-262.4 83.2L829.866667 704c8.533333-3.2 13.866667-10.666667 13.866666-20.266667V476.8c0-12.8-9.6-22.4-21.333333-21.333333z" fill="#FFFFFF" opacity=".25" p-id="15746"></path></svg>