<svg t="1688004965845" class="icon" viewBox="0 0 1024 1024" version="1.1" xmlns="http://www.w3.org/2000/svg" p-id="5845" width="32" height="32"><path d="M778.24 478.72h-232.96V245.76c0-18.6368-14.6432-33.28-33.28-33.28s-33.28 14.6432-33.28 33.28v266.24c0 18.6368 14.6432 33.28 33.28 33.28h266.24c18.6368 0 33.28-14.6432 33.28-33.28s-14.6432-33.28-33.28-33.28z m-266.24-465.92C236.4416 12.8 12.8 236.4416 12.8 512s223.6416 499.2 499.2 499.2 499.2-223.6416 499.2-499.2S787.5584 12.8 512 12.8z m0 931.84c-238.9504 0-432.64-193.6896-432.64-432.64S273.0496 79.36 512 79.36s432.64 193.6896 432.64 432.64-193.6896 432.64-432.64 432.64z" fill="#377AEA" p-id="5846"></path></svg>