<svg t="1688005074010" class="icon" viewBox="0 0 1024 1024" version="1.1" xmlns="http://www.w3.org/2000/svg" p-id="6901" width="32" height="32"><path d="M795.09 904.6H229.51A92.62 92.62 0 0 1 137 812.09V246.51A92.62 92.62 0 0 1 229.51 154h309.08a20 20 0 0 1 0 40H229.51A52.57 52.57 0 0 0 177 246.51v565.58a52.57 52.57 0 0 0 52.51 52.51h565.58a52.56 52.56 0 0 0 52.51-52.51v-312.7a20 20 0 0 1 40 0v312.7a92.62 92.62 0 0 1-92.51 92.51z" fill="#068BFA" p-id="6902"></path><path d="M444.32 640.85a20 20 0 0 1-14.14-34.14L877 159.86a20 20 0 0 1 28.28 28.28L458.47 635a20 20 0 0 1-14.15 5.85z" fill="#068BFA" p-id="6903"></path></svg>