<svg t="1758099149580" class="icon" viewBox="0 0 1024 1024" version="1.1" xmlns="http://www.w3.org/2000/svg" p-id="20692" width="32" height="32"><path d="M1024 900.096c0 24.064-18.944 43.008-42.496 43.008H42.496C18.944 943.104 0 923.648 0 900.096s18.944-43.008 42.496-43.008h938.496c24.064 0 43.008 18.944 43.008 43.008zM640 512c0 24.064-18.944 43.008-43.008 43.008H43.008C19.456 555.008 0 536.064 0 512s18.944-43.008 43.008-43.008h553.984c11.264 0 22.528 4.608 30.208 12.8 8.192 7.68 12.8 18.944 12.8 30.208z m384-388.096c0 24.064-18.944 43.008-42.496 43.008H42.496C18.944 166.912 0 147.456 0 123.904s18.944-43.008 42.496-43.008h938.496c24.064 0 43.008 19.456 43.008 43.008zM737.792 696.832L921.088 512 737.792 327.168c-16.384-16.896-15.872-44.032 0.512-60.416s43.008-16.896 59.904-0.512l213.504 215.04a42.954 42.954 0 0 1 0 60.928L798.208 757.76c-16.896 16.384-43.52 15.872-59.904-0.512s-16.896-43.008-0.512-60.416z" p-id="20693"></path></svg>