<?xml version="1.0" encoding="utf-8"?>
<svg version="1.1" xmlns:xlink="http://www.w3.org/1999/xlink" width="104px" height="104px" xmlns="http://www.w3.org/2000/svg">
  <g transform="matrix(1 0 0 1 -879 -430 )">
    <path d="M 880 434  A 3 3 0 0 1 883 431 L 979 431  A 3 3 0 0 1 982 434 L 982 530  A 3 3 0 0 1 979 533 L 883 533  A 3 3 0 0 1 880 530 L 880 434  Z " fill-rule="nonzero" fill="#ffffff" stroke="none" />
    <path d="M 879.5 434  A 3.5 3.5 0 0 1 883 430.5 L 979 430.5  A 3.5 3.5 0 0 1 982.5 434 L 982.5 530  A 3.5 3.5 0 0 1 979 533.5 L 883 533.5  A 3.5 3.5 0 0 1 879.5 530 L 879.5 434  Z " stroke-width="1" stroke-dasharray="9,4" stroke="#d9d9d9" fill="none" stroke-dashoffset="0.5" />
  </g>
</svg>