<svg t="1758088551602" class="icon" viewBox="0 0 1024 1024" version="1.1" xmlns="http://www.w3.org/2000/svg" p-id="14914" width="48" height="48"><path d="M650.6496 298.6496a32 32 0 0 1 64 0v256a32 32 0 1 1-64 0v-256zM480 384a32 32 0 1 1 64 0v170.6496a32 32 0 1 1-64 0V384zM309.3504 469.3504a32 32 0 1 1 64 0v85.2992a32 32 0 1 1-64 0V469.3504z" p-id="14915" fill="#8a8a8a"></path><path d="M224 874.6496c0 17.664 14.336 32 32 32h512a32 32 0 1 0 0-64h-225.792a32 32 0 0 0 1.792-10.6496v-96h-64v96c0 3.584 0.6144 7.2192 1.8432 10.6496H256a32 32 0 0 0-32 32z" p-id="14916" fill="#8a8a8a"></path><path d="M53.3504 117.3504m31.9488 0l-0.0512 0q31.9488 0 31.9488 31.9488l0 555.3664q0 31.9488-31.9488 31.9488l0.0512 0q-31.9488 0-31.9488-31.9488l0-555.3664q0-31.9488 31.9488-31.9488Z" p-id="14917" fill="#8a8a8a"></path><path d="M906.8032 117.3504m31.9488 0l-0.0512 0q31.9488 0 31.9488 31.9488l0 555.3664q0 31.9488-31.9488 31.9488l0.0512 0q-31.9488 0-31.9488-31.9488l0-555.3664q0-31.9488 31.9488-31.9488Z" p-id="14918" fill="#8a8a8a"></path><path d="M53.2992 181.248m0-31.9488l0 0.0512q0-31.9488 31.9488-31.9488l853.4528 0q31.9488 0 31.9488 31.9488l0-0.0512q0 31.9488-31.9488 31.9488l-853.4528 0q-31.9488 0-31.9488-31.9488Z" p-id="14919" fill="#8a8a8a"></path><path d="M53.3504 736.6144m0-31.9488l0 0.0512q0-31.9488 31.9488-31.9488l853.4528 0q31.9488 0 31.9488 31.9488l0-0.0512q0 31.9488-31.9488 31.9488l-853.4528 0q-31.9488 0-31.9488-31.9488Z" p-id="14920" fill="#8a8a8a"></path></svg>