<svg t="1758094170599" class="icon" viewBox="0 0 1024 1024" version="1.1" xmlns="http://www.w3.org/2000/svg" p-id="14305" width="64" height="64"><path d="M870.4 128a25.6 25.6 0 0 1 25.6 25.6v716.8a25.6 25.6 0 0 1-25.6 25.6H153.6a25.6 25.6 0 0 1-25.6-25.6V153.6a25.6 25.6 0 0 1 25.6-25.6zM832 192H192v640h640V192z m-95.168 220c3.52 0 6.4 2.88 6.4 6.4v32a6.4 6.4 0 0 1-6.4 6.4h-70.816v118.24h52.16v-29.152h-22.784a6.4 6.4 0 0 1-6.4-6.4v-32c0-3.52 2.88-6.4 6.4-6.4h61.312c3.52 0 6.4 2.88 6.4 6.4v38.4h-0.128v67.84a6.4 6.4 0 0 1-6.4 6.4h-38.4v-0.32l-58.112 0.064h-32.448a6.4 6.4 0 0 1-6.4-6.4v-156.672h-0.032v-38.4c0-3.52 2.88-6.4 6.4-6.4h109.248z m-374.72-8c2.272 0 4.224 1.376 5.12 3.296h0.192l57.504 198.432a5.76 5.76 0 0 1-2.4 6.336l-1.664 0.704-27.264 6.944a5.664 5.664 0 0 1-6.08-2.304l-0.736-1.6-15.008-51.84H314.24l-14.88 51.84a5.664 5.664 0 0 1-6.848 3.904l-27.264-6.944a5.664 5.664 0 0 1-4.032-7.04l56.928-197.792 0.16 0.064a5.696 5.696 0 0 1 5.408-3.968h38.4z m193.856 0.032l1.76 0.16 27.264 6.944 1.664 0.704c1.504 0.96 2.464 2.624 2.56 4.48l-0.192 1.856-57.472 198.464a6.4 6.4 0 0 1-3.68 3.008l-1.632 0.256h-38.4a5.632 5.632 0 0 1-4.608-2.368l-0.8-1.6-0.192 0.064-56.896-197.824a5.664 5.664 0 0 1 2.368-6.304l1.664-0.736 27.264-6.944a5.664 5.664 0 0 1 6.08 2.304l0.736 1.6 43.584 151.456 43.84-151.456 0.768-1.6c0.64-0.96 1.6-1.664 2.656-2.08l1.664-0.384z m-213.056 60.32l-15.776 54.848h31.68l-15.904-54.848z" fill="#1296db" p-id="14306"></path></svg>