<svg t="1758094059996" class="icon" viewBox="0 0 1024 1024" version="1.1" xmlns="http://www.w3.org/2000/svg" p-id="8405" width="64" height="64"><path d="M513.689583 350.03554a1454.454575 1454.454575 0 0 0-13.347706-34.04766 127.281927 127.281927 0 0 0-12.902271-23.848721c-5.099469-7.398326-11.806602-13.444986-20.100919-18.150219-8.299437-4.694993-18.651973-7.050169-31.04737-7.050169-12.200838 0-22.456095 2.350056-30.750412 7.050169-8.299437 4.700113-15.00145 10.854291-20.100919 18.452296-5.099469 7.603124-9.901981 17.151828-14.402416 28.651233-4.500435 11.504525-8.355756 21.350186-11.550605 29.547225L246.98633 636.235558c-4.602834 11.402126-7.900081 20.300597-9.901981 26.700533s-3.00029 12.600194-3.00029 18.600774c0 10.398616 4.295637 19.701563 12.902271 27.898601 8.596394 8.202158 18.498375 12.298117 29.700823 12.298117 13.199228 0 22.696733-3.850201 28.497635-11.550605 5.800902-7.700403 12.794752-22.548255 21.00203-44.548674l21.00203-56.401356h178.798852l21.00203 55.198168c2.800612 6.799292 6.149059 14.648174 10.05046 23.551764s7.546805 15.498085 10.95157 19.798842a36.812432 36.812432 0 0 0 12.600194 10.198938c4.99707 2.498535 10.99253 3.747803 18.00174 3.747803 12.00116 0 22.246178-4.249558 30.750413-12.748673 8.499115-8.499115 12.748673-17.848142 12.748672-28.052199 0-9.799582-4.500435-25.497345-13.501305-47.098409l-114.901891-283.793642z m-143.097449 192.300157l65.100149-181.497065 66.298217 181.497065H370.592134z" fill="#f4ea2a" p-id="8406"></path><path d="M907.889801 0H116.110199C51.98796 0 0 51.849722 0 115.797882v792.404236c0 63.948161 51.98796 115.797882 116.110199 115.797882h791.779602c64.122239 0 116.110199-51.849722 116.110199-115.797882V115.797882C1023.98976 51.849722 972.01716 0 907.889801 0z m30.96545 897.527025v10.664853c0 17.02383-13.885301 30.873291-30.96033 30.873291H116.110199c-17.075029 0-30.96033-13.849462-30.96033-30.873291V115.787642c0-17.02383 13.885301-30.873291 30.96033-30.873291h791.779602c17.075029 0 30.96033 13.849462 30.96033 20.213558V897.527025z" fill="#f4ea2a" p-id="8407"></path><path d="M826.067899 241.287827h-64.94655v348.156519h-71.131449l101.753863 101.753862 101.753862-101.753862h-67.429726z" fill="#f4ea2a" p-id="8408"></path></svg>