<svg t="1757404317292" class="icon" viewBox="0 0 1024 1024" version="1.1" xmlns="http://www.w3.org/2000/svg" p-id="16098" width="48" height="48"><path d="M671.786667 776.533333a160 160 0 0 1-151.296 151.253334L512 928l-8.533333-0.213333a160 160 0 0 1-151.253334-151.296L352 768v-10.666667H170.666667a32 32 0 0 1-30.421334-41.941333l1.834667-4.394667 8.234667-17.792 4.266666-9.813333 6.229334-14.933333c6.656-16.298667 14.421333-36.693333 22.186666-59.904 19.285333-57.941333 38.101333-132.48 40.704-207.274667l0.469334-27.392a288 288 0 0 1 277.717333-277.717333L512 96l10.112 0.170667a288 288 0 0 1 277.717333 277.717333l0.469334 27.392c2.56 74.794667 21.418667 149.333333 40.704 207.274667 10.368 31.018667 20.693333 56.832 28.416 74.837333l11.776 26.026667 0.725333 1.578666a32 32 0 0 1-23.893333 45.994667l-4.693334 0.341333h-181.333333V768l-0.213333 8.533333zM512 160l-9.216 0.170667a224 224 0 0 0-214.613333 214.357333l-0.426667 27.477333c-2.730667 83.925333-23.637333 165.546667-44.032 226.773334a1049.685333 1049.685333 0 0 1-23.893333 64.597333h584.405333l-7.552-18.986667a1054.848 1054.848 0 0 1-16.384-45.610666c-20.394667-61.226667-41.301333-142.848-43.989333-226.773334l-0.469334-27.221333a224 224 0 0 0-214.357333-214.613333L512 160z m96 597.333333h-192V768l0.213333 6.570667a96 96 0 0 0 191.573334 0L608 768v-10.666667z" fill="#ffffff" p-id="16099"></path></svg>