<svg t="1749181604852" class="icon" viewBox="0 0 1024 1024" version="1.1" xmlns="http://www.w3.org/2000/svg" p-id="22544" width="64" height="64"><path d="M848 0H176C149.504 0 128 21.504 128 48v32C128 106.496 149.504 128 176 128c0 181.930667 102.016 335.488 241.664 384-139.648 48.512-241.664 202.069333-241.664 384C149.504 896 128 917.504 128 944v32C128 1002.496 149.504 1024 176 1024h672c26.496 0 48-21.504 48-48v-32c0-26.496-21.504-48-48-48 0-181.930667-102.016-335.488-241.664-384 139.648-48.512 241.664-202.069333 241.664-384C874.496 128 896 106.496 896 80v-32C896 21.504 874.496 0 848 0z m-150.186667 768h-371.626666c34.090667-93.610667 104.149333-160 185.813333-160 81.621333 0 151.722667 66.389333 185.856 160z m0.085334-512H326.144a375.253333 375.253333 0 0 1-22.144-128h416c0 45.610667-7.978667 89.173333-22.101333 128z" fill="#fabb5e" p-id="22545"></path></svg>