<?xml version="1.0" encoding="utf-8"?>
<svg version="1.1" xmlns:xlink="http://www.w3.org/1999/xlink" width="39px" height="39px" xmlns="http://www.w3.org/2000/svg">
  <g transform="matrix(1 0 0 1 -678 -3191 )">
    <path d="M 697.5 3191  C 708.42 3191  717 3199.58  717 3210.5  C 717 3221.42  708.42 3230  697.5 3230  C 686.58 3230  678 3221.42  678 3210.5  C 678 3199.58  686.58 3191  697.5 3191  Z " fill-rule="nonzero" fill="#ffffff" stroke="none" />
    <path d="M 697.5 3191.5  C 708.14 3191.5  716.5 3199.86  716.5 3210.5  C 716.5 3221.14  708.14 3229.5  697.5 3229.5  C 686.86 3229.5  678.5 3221.14  678.5 3210.5  C 678.5 3199.86  686.86 3191.5  697.5 3191.5  Z " stroke-width="1" stroke="#ffffff" fill="none" />
  </g>
</svg>