<?xml version="1.0" encoding="utf-8"?>
<svg version="1.1" xmlns:xlink="http://www.w3.org/1999/xlink" width="64px" height="64px" xmlns="http://www.w3.org/2000/svg">
  <g transform="matrix(1 0 0 1 -666 -3179 )">
    <path d="M 695.333511537483 3179.61306260062  C 696.22026999089 3179.53772771924  697.109897522075 3179.5  698 3179.5  C 715.39696961967 3179.5  729.5 3193.60303038033  729.5 3211  C 729.5 3228.39696961967  715.39696961967 3242.5  698 3242.5  C 680.60303038033 3242.5  666.5 3228.39696961967  666.5 3211  C 666.5 3205.63735536427  667.869029054165 3200.36633840497  670.473635776507 3195.68499647495  L 697.75 3211.43301270189  A 0.5 0.5 0 0 0 698.497470760719 3210.9497720971 L 695.333511537502 3179.61306260062  Z " fill-rule="nonzero" fill="#99d5fd" stroke="none" />
    <path d="M 695.333511537483 3179.61306260062  C 696.22026999089 3179.53772771924  697.109897522075 3179.5  698 3179.5  C 715.39696961967 3179.5  729.5 3193.60303038033  729.5 3211  C 729.5 3228.39696961967  715.39696961967 3242.5  698 3242.5  C 680.60303038033 3242.5  666.5 3228.39696961967  666.5 3211  C 666.5 3205.63735536427  667.869029054165 3200.36633840497  670.473635776507 3195.68499647495  L 697.75 3211.43301270189  A 0.5 0.5 0 0 0 698.497470760719 3210.9497720971 L 695.333511537502 3179.61306260062  Z " stroke-width="1" stroke="#ffffff" fill="none" />
  </g>
</svg>