<?xml version="1.0" encoding="utf-8"?>
<svg version="1.1" xmlns:xlink="http://www.w3.org/1999/xlink" width="64px" height="64px" xmlns="http://www.w3.org/2000/svg">
  <g transform="matrix(1 0 0 1 -901 -3179 )">
    <path d="M 930.333511537483 3179.61306260062  C 931.22026999089 3179.53772771924  932.109897522075 3179.5  933 3179.5  C 950.39696961967 3179.5  964.5 3193.60303038033  964.5 3211  C 964.5 3228.39696961967  950.39696961967 3242.5  933 3242.5  C 916.852014491796 3242.5  903.349015581785 3230.29642682772  901.672190417079 3214.28974163612  L 933.044318343823 3211.49803201142  A 0.5 0.5 0 0 0 933.497470760719 3210.9497720971 L 930.333511537502 3179.61306260062  Z " fill-rule="nonzero" fill="#0096fa" stroke="none" />
    <path d="M 930.333511537483 3179.61306260062  C 931.22026999089 3179.53772771924  932.109897522075 3179.5  933 3179.5  C 950.39696961967 3179.5  964.5 3193.60303038033  964.5 3211  C 964.5 3228.39696961967  950.39696961967 3242.5  933 3242.5  C 916.852014491796 3242.5  903.349015581785 3230.29642682772  901.672190417079 3214.28974163612  L 933.044318343823 3211.49803201142  A 0.5 0.5 0 0 0 933.497470760719 3210.9497720971 L 930.333511537502 3179.61306260062  Z " stroke-width="1" stroke="#ffffff" fill="none" />
  </g>
</svg>