<svg t="1758088685944" class="icon" viewBox="0 0 1024 1024" version="1.1" xmlns="http://www.w3.org/2000/svg" p-id="27243" width="48" height="48"><path d="M424.192 205.312c4.352 5.12 3.7888 11.2128 3.7888 17.2544v121.088h-112.64V205.3632h108.8512z m-19.0976 34.4576H342.2208c-0.512 5.3248-1.8432 10.0864 0.6656 13.9264h62.208v-13.9264z m-63.1296 47.7696h64.256c-2.3552-5.1712 1.792-10.24-2.048-13.824H341.9648v13.824z m-262.7584 406.9376v-161.1776H595.968v119.04c-16.9984 14.7968-37.8368 27.648-57.344 42.1376H79.1552z m236.2368-99.6864c1.024 3.584 9.728 0.2048 7.424 7.4752 9.3696 12.4416 18.8928 13.1072 36.0448 10.24 8.9088-1.536 12.1344-10.0352 19.6096-9.8304v-20.3264c-7.5264-1.792-8.3456-11.3664-16.64-11.4176-8.192 1.3824-17.92-4.6592-25.856 3.072-12.1856-4.096-11.6736 11.776-20.5824 13.056v7.7312z m-41.4208-11.264c-13.6192-13.2608-13.6192-13.2608-39.424-13.1584-4.5568 5.0688-11.6224 5.4272-16.2816 8.9088v23.296c9.0112 6.2464 17.664 11.9296 27.5456 12.5952a32.1536 32.1536 0 0 0 28.16-12.9536v-18.7392z m-101.9904 20.48v-23.04c-5.9904-2.56-12.4928-4.8128-15.9744-10.6496-4.7616 0-9.1648-0.256-13.4656 0.1024-3.584 0.256-8.0384-2.048-10.5472 1.3824-3.2256 4.4032-8.6016 0.1536-11.6224 3.84 0.512 3.584-1.536 5.7344-3.4816 7.3216v19.968c8.448 8.8576 19.4048 10.4448 29.44 12.0832 9.6256 1.536 16.896-6.9632 25.6512-11.008z m254.3104 22.9888c-18.688 15.104-38.4512 26.624-57.6512 43.4176 8.704 0.512 12.288 5.2736 15.7184 8.6016 10.8032-6.5536 20.0704-12.8 28.8768-20.0192 8.8064-7.3216 19.2512-12.6976 26.112-20.6848-2.304-7.7824-9.5744-6.8096-13.056-11.3152z m56.4224 0.256l-54.9888 39.936c0 5.8368 4.608 3.7888 6.6048 5.5296 2.2528 2.0992 4.4032 4.4032 6.4512 6.5024 19.8144-11.6736 37.2224-26.5216 55.296-39.7312-1.7408-8.96-10.1376-7.8848-13.312-12.288z m14.0288 52.1216c20.48-12.1344 38.144-26.624 55.4496-40.3456-2.0992-8.6528-10.0352-7.6288-13.4656-11.52l-56.064 40.8064c5.0688 4.4032 10.9568 5.2736 14.08 11.0592z m374.784-291.4304c4.096 7.424 16.384 4.608 14.336 15.36 14.592 3.8912 23.552 14.848 34.8672 22.3232 10.8032 7.1168 20.3264 16.2304 32.4096 22.272v16.4864h-137.728V299.2128c-7.0656-8.8064-15.872-7.3216-24.1664-7.3216-84.4288 0-168.8576 0.2048-253.2864-0.256-12.288-0.0512-23.4496 5.7344-35.9936 4.3008-11.776-1.3312-23.7568-0.3072-35.6352-0.3072h-11.5712v-18.3808h359.3216v-21.6064c-2.4576-2.2528-7.168-1.1776-8.8576-5.12H455.9872c-3.072-4.352-1.536-9.216-1.1776-14.4896h357.8368c4.096-6.0928 0.3072-12.6976 3.072-18.8928h65.3312c24.9856 13.9264 46.336 33.9456 71.8336 50.0224v154.7776l-56.1152-40.8064V284.672h-25.1392v103.2192z m141.312 125.6448H8.192v-31.744c16.64-2.8672 931.328-4.096 1004.8-1.2288v32.9728zM209.7664 349.2352v114.8928H72.3456c-0.5632-4.608-3.4304-6.912-8.1408-7.8336v-181.76c1.1776-1.9968 4.5056-0.8192 4.8128-1.536 7.68-18.1248 27.648-21.5552 40.448-33.5872 2.56-2.3552 5.632-4.608 8.0896-7.168 4.6592-4.8128 12.1344-5.7344 15.7696-11.8272 8.8064 2.56 15.872-4.8128 24.7296-4.0448 10.496 1.024 21.1968 0.256 31.8464 0.256h11.008c2.2016 2.56 4.3008 4.7616 7.5776 3.7888 3.8912 4.5568-0.3072 10.1376 3.4304 14.9504h75.4176c3.3792 4.608 0.512 9.1136 2.816 14.5408h-73.728l-5.6832 5.7344v20.992h77.9264v14.5408H216.3712l-5.888 6.4512v21.3504L128 379.5456v62.1056H153.6v-49.152c14.6944-18.9952 40.8064-23.8592 53.0944-45.5168l3.072 2.2016z m613.0688 183.808h118.8864v231.6288c0.2048-0.2048-0.1536 0.3072-0.6656 0.6656a3.072 3.072 0 0 1-1.5872 0.6144H822.784v-232.96zM198.656 713.8816v51.4048H79.5648c-1.6384-7.68-0.512-16.2816-0.7168-24.7808-0.2048-8.704 0-17.408 0-26.624h119.808z m11.264 67.072v37.0688H41.6768v-23.7056c6.7584-9.9328 16.896-13.7216 30.1568-13.568 45.4656 0.5632 90.9824 0.2048 137.984 0.2048z m757.4016 0.6656c5.12 2.8672 7.168 12.032 15.7696 10.9568v25.6h-167.5776c-1.9968-5.2736-0.6144-11.4688-0.8192-17.4592-0.2048-6.144 0-12.288 0-19.0976h152.576zM393.5744 396.9536h-40.0384v-33.024c5.888-0.2048 12.4928-0.4096 19.0976-0.512 6.7584-0.1024 13.568 0 20.9408 0v33.536z m-28.8768 19.0976h17.7664c1.024 9.472 0.1536 19.1488 0.512 29.44h-18.2272a148.736 148.736 0 0 1 0-29.44z" fill="#ffffff" p-id="27244"></path></svg>