<?xml version="1.0" encoding="utf-8"?>
<svg version="1.1" xmlns:xlink="http://www.w3.org/1999/xlink" width="27px" height="27px" xmlns="http://www.w3.org/2000/svg">
  <defs>
    <filter x="257px" y="462px" width="27px" height="27px" filterUnits="userSpaceOnUse" id="filter43">
      <feOffset dx="0" dy="1" in="SourceAlpha" result="shadowOffsetInner" />
      <feGaussianBlur stdDeviation="1" in="shadowOffsetInner" result="shadowGaussian" />
      <feComposite in2="shadowGaussian" operator="atop" in="SourceAlpha" result="shadowComposite" />
      <feColorMatrix type="matrix" values="0 0 0 0 0  0 0 0 0 0  0 0 0 0 0  0 0 0 0.349019607843137 0  " in="shadowComposite" />
    </filter>
    <g id="widget44">
      <path d="M 270.5 463  C 276.94 463  282 468.06  282 474.5  C 282 480.94  276.94 486  270.5 486  C 264.06 486  259 480.94  259 474.5  C 259 468.06  264.06 463  270.5 463  Z " fill-rule="nonzero" fill="#ffffff" stroke="none" />
      <path d="M 270.5 463.5  C 276.66 463.5  281.5 468.34  281.5 474.5  C 281.5 480.66  276.66 485.5  270.5 485.5  C 264.34 485.5  259.5 480.66  259.5 474.5  C 259.5 468.34  264.34 463.5  270.5 463.5  Z " stroke-width="1" stroke="#d9d9d9" fill="none" />
    </g>
  </defs>
  <g transform="matrix(1 0 0 1 -257 -462 )">
    <use xlink:href="#widget44" filter="url(#filter43)" />
    <use xlink:href="#widget44" />
  </g>
</svg>