<svg t="1758094353389" class="icon" viewBox="0 0 1024 1024" version="1.1" xmlns="http://www.w3.org/2000/svg" p-id="15484" width="48" height="48"><path d="M999.204927 810.768013a224.066796 224.066796 0 0 1-223.256028 213.231987H248.065217A223.99309 223.99309 0 0 1 24.514364 810.768013V213.747931A224.140502 224.140502 0 0 1 247.770392 0H692.292382L595.9584 81.076801H247.770392A143.063701 143.063701 0 0 0 105.591165 223.919384v575.42417a142.621464 142.621464 0 0 0 142.179227 142.547758h527.883683a142.547758 142.547758 0 0 0 142.179226-142.547758V396.686677l81.076802-80.118621V810.768013zM718.531783 452.998201l-58.964947 62.208018c-19.605845 20.048082-68.988987 70.09458-84.614698 86.752177s-28.745411 30.293241-38.916864 41.201757-16.510185 16.952422-18.35284 18.500252a546.310228 546.310228 0 0 1-16.952422 14.741236 92.353847 92.353847 0 0 1-19.900669 12.235226 319.590009 319.590009 0 0 1-30.145829 13.119701c-13.267113 5.085727-27.050169 10.024041-41.570287 14.741237s-28.229468 8.992154-41.201757 12.677463-22.701504 5.896495-29.040236 6.928381c-13.267113 1.54783-22.111855-0.589649-26.534226-6.191319a37.884978 37.884978 0 0 1-3.685309-28.37688 273.81847 273.81847 0 0 1 7.370619-31.177716c3.685309-13.561938 7.370618-27.639819 11.719283-42.307349s8.181386-28.082056 12.16152-40.317282a171.145757 171.145757 0 0 1 9.581804-25.354927 127.659109 127.659109 0 0 1 10.02404-19.605845 121.46779 121.46779 0 0 1 15.773124-19.605844l20.564025-22.111855c10.687397-11.571871 56.016699-57.564529 72.232059-74.443245l53.731807-56.164111 59.628302-62.208019 152.276974-159.057943 138.788743 140.77881z m248.90578-262.320306c-7.370618 7.370618-13.856762 14.741237-19.753257 20.048082s-10.834809 10.834809-14.741237 15.25718-9.434391 9.581804-13.70935 13.414525l-138.051681-140.778809c7.370618-7.370618 16.067948-15.478298 26.091989-25.354927s18.500252-17.615778 25.207515-23.438566a78.644497 78.644497 0 0 1 26.681638-14.741237 77.022961 77.022961 0 0 1 24.838983-3.832721h2.284892a82.84575 82.84575 0 0 1 13.267113 1.400417 109.527388 109.527388 0 0 1 54.542576 29.482473 117.045419 117.045419 0 0 1 22.111854 29.040236 86.825884 86.825884 0 0 1 10.982222 45.255597v5.380551a71.05276 71.05276 0 0 1-4.64349 24.986396 76.433312 76.433312 0 0 1-15.109767 23.585979z m0 0" fill="#3B89FF" p-id="15485"></path></svg>