<?xml version="1.0" encoding="utf-8"?>
<svg version="1.1" xmlns:xlink="http://www.w3.org/1999/xlink" width="104px" height="104px" xmlns="http://www.w3.org/2000/svg">
  <g transform="matrix(1 0 0 1 -878 -440 )">
    <path d="M 879 444  A 3 3 0 0 1 882 441 L 978 441  A 3 3 0 0 1 981 444 L 981 540  A 3 3 0 0 1 978 543 L 882 543  A 3 3 0 0 1 879 540 L 879 444  Z " fill-rule="nonzero" fill="#000000" stroke="none" fill-opacity="0.0196078431372549" />
    <path d="M 878.5 444  A 3.5 3.5 0 0 1 882 440.5 L 978 440.5  A 3.5 3.5 0 0 1 981.5 444 L 981.5 540  A 3.5 3.5 0 0 1 978 543.5 L 882 543.5  A 3.5 3.5 0 0 1 878.5 540 L 878.5 444  Z " stroke-width="1" stroke-dasharray="9,4" stroke="#d9d9d9" fill="none" stroke-dashoffset="0.5" />
  </g>
</svg>