<svg t="1758086584449" class="icon" viewBox="0 0 1024 1024" version="1.1" xmlns="http://www.w3.org/2000/svg" p-id="2947" width="48" height="48"><path d="M626.651429 630.308571c0-23.04 10.24-33.28 10.24-33.28 7.68-7.68 10.24-20.48 2.56-30.72-5.12-10.24-17.92-15.36-30.72-10.24-20.48 7.68-35.84 15.36-48.64 25.6-28.16-63.817143-81.737143-91.977143-84.297143-91.977142-7.68-5.12-20.48-2.56-28.16 2.56-7.68 5.12-10.24 15.36-10.24 25.6 5.12 30.72 5.12 53.76 2.56 68.937142-23.04-17.92-48.64-28.16-53.76-28.16-10.24-2.56-20.48 0-28.16 7.68-7.68 7.68-7.68 20.48-2.56 28.16 0 0 7.68 12.8 7.68 38.4 0 5.12-2.56 10.24-2.56 15.36-2.56 12.8-7.68 28.16-7.68 51.2 0 81.737143 63.817143 145.737143 145.737143 145.737143 79.177143 0 145.737143-63.817143 145.737142-145.737143 0-23.04-7.68-35.84-10.24-46.08-4.937143-7.68-7.497143-12.8-7.497142-23.04z m-127.634286 172.982858c-59.428571 0-104.594286-45.165714-104.594286-104.594286 0-19.748571 2.742857-31.085714 5.668572-42.422857 2.742857-11.337143 5.668571-19.748571 5.668571-31.085715v-2.742857c5.668571 5.668571 8.411429 8.411429 11.337143 14.08 2.742857 8.411429 11.337143 14.08 19.748571 14.08 8.411429 2.742857 17.005714-2.742857 25.417143-8.411428 2.742857-2.742857 28.342857-31.085714 31.085714-87.771429 14.08 17.005714 28.342857 42.422857 34.011429 73.508572 2.742857 11.337143 11.337143 19.748571 22.674286 22.674285 11.337143 2.742857 22.674286-5.668571 28.342857-14.08 0 0 0-2.742857 2.742857-5.668571 0 19.748571 8.411429 34.011429 11.337143 42.422857 2.742857 8.411429 5.668571 14.08 5.668571 25.417143 5.485714 59.245714-42.605714 104.594286-99.108571 104.594286z m-0.182857-12.068572" fill="#8a8a8a" p-id="2948"></path><path d="M830.537143 32H166.034286c-71.497143 0-127.817143 56.32-127.817143 127.817143v666.88c0 71.497143 56.32 127.817143 127.817143 127.817143h76.617143v25.6c0 15.36 10.24 25.6 25.6 25.6s25.6-10.24 25.6-25.6v-25.6h51.2v25.6c0 15.36 10.24 25.6 25.6 25.6s25.6-10.24 25.6-25.6v-25.6h204.434285v25.6c0 15.36 10.24 25.6 25.6 25.6s25.6-10.24 25.6-25.6v-25.6h51.2v25.6c0 15.36 10.24 25.6 25.6 25.6s25.6-10.24 25.6-25.6v-25.6h76.617143c71.497143 0 127.817143-56.32 127.817143-127.817143V159.817143c-0.365714-71.497143-56.502857-127.817143-128.182857-127.817143zM911.36 830.171429c0 43.885714-33.645714 77.531429-77.531429 77.531428H162.56c-43.885714 0-77.531429-33.645714-77.531429-77.531428V156.525714c0-43.885714 33.645714-77.531429 77.531429-77.531428H833.828571c43.885714 0 77.531429 33.645714 77.531429 77.531428V830.171429z m-4.022857-3.474286" fill="#8a8a8a" p-id="2949"></path><path d="M396.068571 325.12h204.434286c15.36 0 25.6-10.24 25.6-25.6v-102.217143c0-15.36-10.24-25.6-25.6-25.6H396.068571c-15.36 0-25.6 10.24-25.6 25.6v102.217143c0 15.36 10.24 25.6 25.6 25.6z m10.422858-115.931429h183.588571v78.445715H406.491429v-78.445715z m321.828571-37.485714h-25.6c-15.36 0-25.6 10.24-25.6 25.6s10.24 25.6 25.6 25.6h25.6c15.36 0 25.6-10.24 25.6-25.6s-10.24-25.6-25.6-25.6z m0 102.217143h-25.6c-15.36 0-25.6 10.24-25.6 25.6s10.24 25.6 25.6 25.6h25.6c15.36 0 25.6-10.24 25.6-25.6s-10.24-25.6-25.6-25.6zM293.851429 171.702857h-25.6c-15.36 0-25.6 10.24-25.6 25.6s10.24 25.6 25.6 25.6h25.6c15.36 0 25.6-10.24 25.6-25.6-0.182857-15.36-10.422857-25.6-25.6-25.6z m0 102.217143h-25.6c-15.36 0-25.6 10.24-25.6 25.6s10.24 25.6 25.6 25.6h25.6c15.36 0 25.6-10.24 25.6-25.6-0.182857-15.36-10.422857-25.6-25.6-25.6z m0 0" fill="#8a8a8a" p-id="2950"></path><path d="M654.08 616.594286c0-23.04 10.24-33.28 10.24-33.28 7.68-7.68 10.24-20.48 2.56-30.72-5.12-10.24-17.92-15.36-30.72-10.24-20.48 7.68-35.84 15.36-48.64 25.6-28.16-63.817143-81.737143-91.977143-84.297143-91.977143-7.68-5.12-20.48-2.56-28.16 2.56-7.68 5.12-10.24 15.36-10.24 25.6 5.12 30.72 5.12 53.76 2.56 68.937143C444.342857 555.154286 418.742857 544.914286 413.622857 544.914286c-10.24-2.56-20.48 0-28.16 7.68-7.68 7.68-7.68 20.48-2.56 28.16 0 0 7.68 12.8 7.68 38.4 0 5.12-2.56 10.24-2.56 15.36-2.56 12.8-7.68 28.16-7.68 51.2 0 81.737143 63.817143 145.737143 145.737143 145.737143 79.177143 0 145.737143-63.817143 145.737143-145.737143 0-23.04-7.68-35.84-10.24-46.08-4.937143-7.862857-7.497143-12.982857-7.497143-23.04z m-127.634286 172.982857c-59.428571 0-104.594286-45.165714-104.594285-104.594286 0-19.748571 2.742857-31.085714 5.668571-42.422857 2.742857-11.337143 5.668571-19.748571 5.668571-31.085714v-2.742857c5.668571 5.668571 8.411429 8.411429 11.337143 14.08 2.742857 8.411429 11.337143 14.08 19.748572 14.08 8.411429 2.742857 17.005714-2.742857 25.417143-8.411429 2.742857-2.742857 28.342857-31.085714 31.085714-87.771429 14.08 17.005714 28.342857 42.422857 34.011428 73.508572 2.742857 11.337143 11.337143 19.748571 22.674286 22.674286 11.337143 2.742857 22.674286-5.668571 28.342857-14.08 0 0 0-2.742857 2.742857-5.668572 0 19.748571 8.411429 34.011429 11.337143 42.422857 2.742857 8.411429 5.668571 14.08 5.668572 25.417143 5.668571 59.245714-42.422857 104.594286-99.108572 104.594286z m-0.182857-12.068572" fill="#8a8a8a" p-id="2951"></path><path d="M857.965714 18.285714H193.462857c-71.497143 0-127.817143 56.32-127.817143 127.817143v666.88c0 71.497143 56.32 127.817143 127.817143 127.817143h76.617143v25.6c0 15.36 10.24 25.6 25.6 25.6s25.6-10.24 25.6-25.6v-25.6h51.2v25.6c0 15.36 10.24 25.6 25.6 25.6s25.6-10.24 25.6-25.6v-25.6h204.434286v25.6c0 15.36 10.24 25.6 25.6 25.6s25.6-10.24 25.6-25.6v-25.6h51.2v25.6c0 15.36 10.24 25.6 25.6 25.6s25.6-10.24 25.6-25.6v-25.6h76.617143c71.497143 0 127.817143-56.32 127.817142-127.817143V146.102857c-0.365714-71.497143-56.502857-127.817143-128.182857-127.817143z m74.788572 793.234286c0 43.337143-33.097143 76.251429-76.251429 76.251429H195.108571C151.771429 887.771429 118.857143 854.674286 118.857143 811.52v-663.771429C118.674286 104.411429 151.771429 71.314286 195.108571 71.314286h661.394286c43.337143 0 76.251429 33.097143 76.251429 76.251428v663.954286z m2.011428 1.462857" fill="#8a8a8a" p-id="2952"></path><path d="M423.497143 311.222857h204.434286c15.36 0 25.6-10.24 25.6-25.6v-102.217143c0-15.36-10.24-25.6-25.6-25.6H423.497143c-15.36 0-25.6 10.24-25.6 25.6v102.217143c0 15.542857 10.24 25.6 25.6 25.6z m10.422857-115.748571h183.588571v78.445714H433.92v-78.445714z m321.828571-37.485715h-25.6c-15.36 0-25.6 10.24-25.6 25.6s10.24 25.6 25.6 25.6h25.6c15.36 0 25.6-10.24 25.6-25.6s-10.24-25.6-25.6-25.6z m0 102.217143h-25.6c-15.36 0-25.6 10.24-25.6 25.6s10.24 25.6 25.6 25.6h25.6c15.36 0 25.6-10.24 25.6-25.6s-10.24-25.6-25.6-25.6zM321.28 157.988571h-25.6c-15.36 0-25.6 10.24-25.6 25.6s10.24 25.6 25.6 25.6h25.6c15.36 0 25.6-10.24 25.6-25.6s-10.24-25.6-25.6-25.6z m0 102.217143h-25.6c-15.36 0-25.6 10.24-25.6 25.6s10.24 25.6 25.6 25.6h25.6c15.36 0 25.6-10.24 25.6-25.6s-10.24-25.6-25.6-25.6z m0 0" fill="#8a8a8a" p-id="2953"></path></svg>