<svg t="1758087040517" class="icon" viewBox="0 0 1151 1024" version="1.1" xmlns="http://www.w3.org/2000/svg" p-id="11481" width="48" height="48"><path d="M652.742324 448.971332h345.362564v78.857785h-345.362564V448.971332z m460.483418 227.939292V426.522766c-1.726813-40.867903-35.687465-72.526138-76.555368-71.37493v393.713322c40.867903 1.151209 75.40416-31.082631 76.555368-71.950534z m-460.483418-322.913997h345.362564V408.679033h-345.362564v-54.682406z m76.555369-39.14109h192.251827c21.297358-0.575604 37.989882-17.268128 37.989881-38.565486V196.856661h-268.23159V276.290051c0 21.297358 17.268128 38.565486 37.989882 38.565486z m-76.555369 252.114671h345.362564v78.282181h-345.362564V566.970208z m-499.048903 103.033165v-235.997752c-43.17032 0.575604-77.130972 35.687465-77.130973 78.857785H0.00708v78.857786h76.555368c-0.575604 42.019112 33.960652 77.706577 77.130973 78.282181z" p-id="11482" fill="#8a8a8a"></path><path d="M960.115006 866.284429v-78.282181h38.565486v-102.45756h-345.362563v102.45756h37.989882v78.857786H306.804157v-196.856661h77.130972v-78.857786h37.989882v39.141091h76.555369V472.571107H422.500616v39.141091h-37.989882V433.430017H306.804157V276.290051h77.130972V196.856661h-230.241708V276.290051H230.248789v156.564362h-38.565486v235.997751H230.248789v117.998876H76.562448C33.967732 788.577853-0.568524 823.689713 0.00708 866.284429v157.139967h1151.784148v-157.139967h-191.676222z m-76.555368 0.575605h-115.120855v-78.857786h115.120855v78.857786z" p-id="11483" fill="#8a8a8a"></path><path d="M614.176838 748.285554V353.996627c-40.867903-1.151209-75.40416 30.507026-76.555368 71.37493v250.963463c1.726813 41.443508 35.687465 73.677347 76.555368 71.950534zM384.510734 78.857785H306.804157V0H230.248789v78.857785H153.693421v78.857786h230.241708l0.575605-78.857786z" p-id="11484" fill="#8a8a8a"></path></svg>