<?xml version="1.0" encoding="utf-8"?>
<svg version="1.1" xmlns:xlink="http://www.w3.org/1999/xlink" width="28px" height="28px" xmlns="http://www.w3.org/2000/svg">
  <defs>
    <filter x="422px" y="445px" width="28px" height="28px" filterUnits="userSpaceOnUse" id="filter55">
      <feOffset dx="0" dy="1" in="SourceAlpha" result="shadowOffsetInner" />
      <feGaussianBlur stdDeviation="1" in="shadowOffsetInner" result="shadowGaussian" />
      <feComposite in2="shadowGaussian" operator="atop" in="SourceAlpha" result="shadowComposite" />
      <feColorMatrix type="matrix" values="0 0 0 0 0  0 0 0 0 0  0 0 0 0 0  0 0 0 0.349019607843137 0  " in="shadowComposite" />
    </filter>
    <g id="widget56">
      <path d="M 436 446  C 442.72 446  448 451.28  448 458  C 448 464.72  442.72 470  436 470  C 429.28 470  424 464.72  424 458  C 424 451.28  429.28 446  436 446  Z " fill-rule="nonzero" fill="#ffffff" stroke="none" />
      <path d="M 436 446.5  C 442.44 446.5  447.5 451.56  447.5 458  C 447.5 464.44  442.44 469.5  436 469.5  C 429.56 469.5  424.5 464.44  424.5 458  C 424.5 451.56  429.56 446.5  436 446.5  Z " stroke-width="1" stroke="#d9d9d9" fill="none" />
    </g>
  </defs>
  <g transform="matrix(1 0 0 1 -422 -445 )">
    <use xlink:href="#widget56" filter="url(#filter55)" />
    <use xlink:href="#widget56" />
  </g>
</svg>