<?xml version="1.0" encoding="utf-8"?>
<svg version="1.1" xmlns:xlink="http://www.w3.org/1999/xlink" width="14px" height="14px" xmlns="http://www.w3.org/2000/svg">
  <g transform="matrix(1 0 0 1 -1364 -325 )">
    <path d="M 1371 327.5  C 1373.52 327.5  1375.5 329.48  1375.5 332  C 1375.5 334.52  1373.52 336.5  1371 336.5  C 1368.48 336.5  1366.5 334.52  1366.5 332  C 1366.5 329.48  1368.48 327.5  1371 327.5  Z " fill-rule="nonzero" fill="#0bd442" stroke="none" />
    <path d="M 1371 326.5  C 1374.08 326.5  1376.5 328.92  1376.5 332  C 1376.5 335.08  1374.08 337.5  1371 337.5  C 1367.92 337.5  1365.5 335.08  1365.5 332  C 1365.5 328.92  1367.92 326.5  1371 326.5  Z " stroke-width="3" stroke="#0bd43d" fill="none" stroke-opacity="0.298039215686275" />
  </g>
</svg>