<?xml version="1.0" encoding="utf-8"?>
<svg version="1.1" xmlns:xlink="http://www.w3.org/1999/xlink" width="14px" height="14px" xmlns="http://www.w3.org/2000/svg">
  <g transform="matrix(1 0 0 1 -722 -355 )">
    <path d="M 729 357.5  C 731.52 357.5  733.5 359.48  733.5 362  C 733.5 364.52  731.52 366.5  729 366.5  C 726.48 366.5  724.5 364.52  724.5 362  C 724.5 359.48  726.48 357.5  729 357.5  Z " fill-rule="nonzero" fill="#0b7ad4" stroke="none" />
    <path d="M 729 356.5  C 732.08 356.5  734.5 358.92  734.5 362  C 734.5 365.08  732.08 367.5  729 367.5  C 725.92 367.5  723.5 365.08  723.5 362  C 723.5 358.92  725.92 356.5  729 356.5  Z " stroke-width="3" stroke="#0b7ad4" fill="none" stroke-opacity="0.298039215686275" />
  </g>
</svg>