<?xml version="1.0" encoding="utf-8"?>
<svg version="1.1" xmlns:xlink="http://www.w3.org/1999/xlink" width="16px" height="17px" xmlns="http://www.w3.org/2000/svg">
  <g transform="matrix(1 0 0 1 -1305 -312 )">
    <path d="M 1313 314.5  C 1316.08 314.5  1318.5 317.14  1318.5 320.5  C 1318.5 323.86  1316.08 326.5  1313 326.5  C 1309.92 326.5  1307.5 323.86  1307.5 320.5  C 1307.5 317.14  1309.92 314.5  1313 314.5  Z " fill-rule="nonzero" fill="#0bd442" stroke="none" />
    <path d="M 1313 313.5  C 1316.64 313.5  1319.5 316.58  1319.5 320.5  C 1319.5 324.42  1316.64 327.5  1313 327.5  C 1309.36 327.5  1306.5 324.42  1306.5 320.5  C 1306.5 316.58  1309.36 313.5  1313 313.5  Z " stroke-width="3" stroke="#0bd43d" fill="none" stroke-opacity="0.298039215686275" />
  </g>
</svg>