<?xml version="1.0" encoding="utf-8"?>
<svg version="1.1" xmlns:xlink="http://www.w3.org/1999/xlink" width="1375px" height="201px" xmlns="http://www.w3.org/2000/svg">
  <g transform="matrix(1 0 0 1 -139 -176 )">
    <path d="M 140 182  A 5 5 0 0 1 145 177 L 1508 177  A 5 5 0 0 1 1513 182 L 1513 371  A 5 5 0 0 1 1508 376 L 145 376  A 5 5 0 0 1 140 371 L 140 182  Z " fill-rule="nonzero" fill="#000000" stroke="none" fill-opacity="0.0196078431372549" />
    <path d="M 139.5 182  A 5.5 5.5 0 0 1 145 176.5 L 1508 176.5  A 5.5 5.5 0 0 1 1513.5 182 L 1513.5 371  A 5.5 5.5 0 0 1 1508 376.5 L 145 376.5  A 5.5 5.5 0 0 1 139.5 371 L 139.5 182  Z " stroke-width="1" stroke-dasharray="9,4" stroke="#108ee9" fill="none" stroke-dashoffset="0.5" />
  </g>
</svg>