<?xml version="1.0" encoding="utf-8"?>
<svg version="1.1" xmlns:xlink="http://www.w3.org/1999/xlink" width="10px" height="8px" xmlns="http://www.w3.org/2000/svg">
  <g transform="matrix(1 0 0 1 -268 -267 )">
    <path d="M 9.81935483870967 1.10437710437714  C 9.81935483870967 1.10437710437714  10 1.38271604938268  10 1.56228956228955  C 10 1.74186307519642  9.93978494623656 1.89450056116721  9.81935483870967 2.02020202020202  L 5.14838709677417 6.89562289562286  L 4.27096774193546 7.81144781144781  C 4.15053763440858 7.93714927048256  4.00430107526881 8  3.83225806451611 8  C 3.66021505376347 8  3.51397849462364 7.93714927048256  3.39354838709676 7.81144781144781  L 2.51612903225805 6.89562289562286  L 0.180645161290329 4.45791245791247  C 0.0602150537634429 4.33221099887766  0 4.17957351290681  0 4  C 0 3.82042648709319  0.0602150537634429 3.66778900112234  0.180645161290329 3.54208754208753  L 1.05806451612904 2.62626262626259  C 1.17849462365592 2.50056116722783  1.32473118279569 2.43771043771045  1.49677419354839 2.43771043771045  C 1.66881720430109 2.43771043771045  1.81505376344086 2.50056116722783  1.93548387096774 2.62626262626259  L 3.83225806451611 4.61279461279457  L 8.06451612903226 0.188552188552194  C 8.18494623655914 0.0628507295174359  8.33118279569891 0  8.50322580645161 0  C 8.67526881720431 0  8.82150537634408 0.0628507295174359  8.94193548387096 0.188552188552194  L 9.81935483870967 1.10437710437714  Z " fill-rule="nonzero" fill="#ffffff" stroke="none" transform="matrix(1 0 0 1 268 267 )" />
  </g>
</svg>