<?xml version="1.0" encoding="utf-8"?>
<svg version="1.1" xmlns:xlink="http://www.w3.org/1999/xlink" width="148px" height="84px" xmlns="http://www.w3.org/2000/svg">
  <g transform="matrix(1 0 0 1 -786 -421 )">
    <path d="M 786 421  L 934 421  L 934 505  L 786 505  L 786 421  " fill-rule="nonzero" fill="#cccccc" stroke="none" />
    <path d="M 792 427  L 928 427  L 928 499  L 792 499  L 792 427  " fill-rule="nonzero" fill="#ffffff" stroke="none" />
    <path d="M 869.26 446.2  C 865.732 446.2  862.96 443.428  862.96 439.9  C 862.96 436.372  865.732 433.6  869.26 433.6  C 872.788 433.6  875.56 436.372  875.56 439.9  C 875.56 443.428  872.788 446.2  869.26 446.2  " fill-rule="nonzero" fill="#cccccc" stroke="none" />
    <path d="M 794 497  L 794 459.6  L 827 442.6  L 873.2 473.843243243243  L 899.6 452.8  L 926 473.843243243243  L 926 497  L 794 497  " fill-rule="nonzero" fill="#169bd5" stroke="none" />
  </g>
</svg>