<?xml version="1.0" encoding="utf-8"?>
<svg version="1.1" xmlns:xlink="http://www.w3.org/1999/xlink" width="366px" height="207px" xmlns="http://www.w3.org/2000/svg">
  <g transform="matrix(1 0 0 1 -10 -95 )">
    <path d="M 10 95  L 376 95  L 376 302  L 10 302  L 10 95  " fill-rule="nonzero" fill="#cccccc" stroke="none" />
    <path d="M 24 109  L 362 109  L 362 288  L 24 288  L 24 109  " fill-rule="nonzero" fill="#ffffff" stroke="none" />
    <path d="M 215.845 157.1  C 207.151 157.1  200.32 150.269  200.32 141.575  C 200.32 132.881  207.151 126.05  215.845 126.05  C 224.539 126.05  231.37 132.881  231.37 141.575  C 231.37 150.269  224.539 157.1  215.845 157.1  " fill-rule="nonzero" fill="#cccccc" stroke="none" />
    <path d="M 29 283  L 29 190.05  L 111 147.8  L 225.8 225.650819672131  L 291.4 173.15  L 357 225.650819672131  L 357 283  L 29 283  " fill-rule="nonzero" fill="#169bd5" stroke="none" />
  </g>
</svg>