<?xml version="1.0" encoding="utf-8"?>
<svg version="1.1" xmlns:xlink="http://www.w3.org/1999/xlink" width="104px" height="104px" xmlns="http://www.w3.org/2000/svg">
  <g transform="matrix(1 0 0 1 -72 -97 )">
    <path d="M 73 101  A 3 3 0 0 1 76 98 L 172 98  A 3 3 0 0 1 175 101 L 175 197  A 3 3 0 0 1 172 200 L 76 200  A 3 3 0 0 1 73 197 L 73 101  Z " fill-rule="nonzero" fill="#000000" stroke="none" fill-opacity="0.0196078431372549" />
    <path d="M 72.5 101  A 3.5 3.5 0 0 1 76 97.5 L 172 97.5  A 3.5 3.5 0 0 1 175.5 101 L 175.5 197  A 3.5 3.5 0 0 1 172 200.5 L 76 200.5  A 3.5 3.5 0 0 1 72.5 197 L 72.5 101  Z " stroke-width="1" stroke-dasharray="9,4" stroke="#d9d9d9" fill="none" stroke-dashoffset="0.5" />
  </g>
</svg>