<?xml version="1.0" encoding="utf-8"?>
<svg version="1.1" xmlns:xlink="http://www.w3.org/1999/xlink" width="104px" height="104px" xmlns="http://www.w3.org/2000/svg">
  <g transform="matrix(1 0 0 1 -192 -97 )">
    <path d="M 193 101  A 3 3 0 0 1 196 98 L 292 98  A 3 3 0 0 1 295 101 L 295 197  A 3 3 0 0 1 292 200 L 196 200  A 3 3 0 0 1 193 197 L 193 101  Z " fill-rule="nonzero" fill="#ffffff" stroke="none" />
    <path d="M 192.5 101  A 3.5 3.5 0 0 1 196 97.5 L 292 97.5  A 3.5 3.5 0 0 1 295.5 101 L 295.5 197  A 3.5 3.5 0 0 1 292 200.5 L 196 200.5  A 3.5 3.5 0 0 1 192.5 197 L 192.5 101  Z " stroke-width="1" stroke-dasharray="9,4" stroke="#d9d9d9" fill="none" stroke-dashoffset="0.5" />
  </g>
</svg>