<svg t="1680829648083" class="icon" viewBox="0 0 1024 1024" version="1.1" xmlns="http://www.w3.org/2000/svg" p-id="7789" width="32" height="32"><path d="M337.351111 149.333333h519.964445c9.614222 0 17.351111 7.736889 17.351111 17.351111v519.964445a17.351111 17.351111 0 0 1-17.351111 17.351111h-67.982223V337.351111c0-56.718222-45.966222-102.684444-102.684444-102.684444H320V166.684444c0-9.614222 7.736889-17.351111 17.351111-17.351111z m451.982222 640h67.982223c56.718222 0 102.684444-45.966222 102.684444-102.684444V166.684444c0-56.718222-45.966222-102.684444-102.684444-102.684444H337.351111c-56.718222 0-102.684444 45.966222-102.684444 102.684444v67.982223H166.684444c-56.718222 0-102.684444 45.966222-102.684444 102.684444v519.964445c0 56.718222 45.966222 102.684444 102.684444 102.684444h519.964445c56.718222 0 102.684444-45.966222 102.684444-102.684444v-67.982223zM166.684444 320h519.964445c9.614222 0 17.351111 7.736889 17.351111 17.351111v519.964445a17.351111 17.351111 0 0 1-17.351111 17.351111H166.684444a17.351111 17.351111 0 0 1-17.351111-17.351111V337.351111c0-9.614222 7.736889-17.351111 17.351111-17.351111z" fill="#bfbfbf" p-id="7790"></path></svg>