<svg t="1681194362413" class="icon" viewBox="0 0 1024 1024" version="1.1" xmlns="http://www.w3.org/2000/svg" p-id="2627" width="32" height="32"><path d="M367.592049 480.728186A269.289908 269.289908 0 0 1 534.404992 0.08535a269.289908 269.289908 0 1 1 0 538.409816A359.137877 359.137877 0 0 0 175.182115 897.460043H85.333146a448.815847 448.815847 0 0 1 282.259903-416.732857z m390.879867 107.595963l74.745974-49.829983L930.915857 685.000116a44.881985 44.881985 0 0 1-37.372987 69.796976H444.557023v-89.762969h365.195875l-51.280982-76.708974zM624.679961 974.170017L550.019987 1024l-97.783967-146.50495a44.881985 44.881985 0 0 1 37.287988-69.711976h449.071846v89.677969H573.484979l51.194982 76.793974z m-90.274969-525.26782a179.525939 179.525939 0 1 0 0.086-359.137878 179.525939 179.525939 0 0 0-0.086 359.137878z" fill="#bfbfbf" p-id="2628"></path></svg>