<svg t="1725866546645" class="icon" viewBox="0 0 1462 1024" version="1.1" xmlns="http://www.w3.org/2000/svg" p-id="8418" width="48" height="48"><path d="M146.285714 36.571429A109.714286 109.714286 0 0 0 36.571429 146.285714v731.428572A109.714286 109.714286 0 0 0 146.285714 987.428571h1170.285715a109.714286 109.714286 0 0 0 109.714285-109.714285V146.285714A109.714286 109.714286 0 0 0 1316.571429 36.571429H146.285714zM146.285714 0h1170.285715a146.285714 146.285714 0 0 1 146.285714 146.285714v731.428572a146.285714 146.285714 0 0 1-146.285714 146.285714H146.285714a146.285714 146.285714 0 0 1-146.285714-146.285714V146.285714a146.285714 146.285714 0 0 1 146.285714-146.285714z" fill="#3A79D9" p-id="8419"></path><path d="M346.404571 260.973714l29.842286 11.702857c-45.056 122.88-104.155429 217.088-176.713143 281.453715l-24.576-21.650286c75.483429-66.706286 132.827429-157.403429 171.446857-271.506286z m184.32 310.125715c47.396571 63.780571 88.356571 131.657143 123.465143 203.629714l-29.257143 13.458286a1255.497143 1255.497143 0 0 0-28.086857-56.173715 3839.268571 3839.268571 0 0 1-351.670857 36.864l-5.851428-30.427428c50.907429-33.938286 110.006857-128.731429 177.883428-284.964572l31.012572 9.947429c-52.662857 120.539429-104.740571 211.236571-157.403429 272.676571 105.325714-7.021714 201.874286-17.554286 290.816-31.597714a1134.299429 1134.299429 0 0 0-80.164571-124.050286l29.257142-9.362285z m-8.192-314.221715c34.523429 111.177143 94.793143 202.459429 181.394286 272.676572l-21.650286 25.746285c-88.941714-73.142857-151.552-167.350857-186.660571-283.209142l26.916571-15.213715zM798.72 292.571429h451.730286v31.012571H1149.805714v166.180571h131.657143v31.012572h-131.657143v263.314286h-31.597714v-263.314286h-179.638857c-4.681143 61.44-15.798857 112.347429-33.353143 152.722286-22.235429 47.981714-58.514286 86.016-109.421714 113.517714l-18.139429-26.916572c47.981714-26.916571 82.505143-63.780571 102.985143-110.592 13.458286-35.108571 22.235429-78.409143 26.331429-128.731428h-139.849143v-31.012572h141.604571c0-9.362286 0.585143-17.554286 0.585143-25.746285v-140.434286H798.72V292.571429z m142.189714 31.012571v140.434286c0 8.777143-0.585143 17.554286-0.585143 25.746285h177.883429V323.584h-177.298286z" fill="#3A79D9" p-id="8420"></path></svg>