<svg t="1742297543241" class="icon" viewBox="0 0 1872 1024" version="1.1" xmlns="http://www.w3.org/2000/svg" p-id="3681" width="48" height="48"><path d="M1843.201755 760.685714H29.258898L263.316041 29.257143h1345.828572l234.057142 731.428571z" fill="#ffffff" p-id="3682"></path><path d="M29.258898 731.428571h1813.942857v263.314286H29.258898z" fill="#ffffff" p-id="3683"></path><path d="M1813.944613 1024H58.516041a58.514286 58.514286 0 0 1-58.514286-58.514286v-229.961143a58.514286 58.514286 0 0 1 2.048-15.798857L229.670327 41.252571A58.514286 58.514286 0 0 1 285.55147 0h1302.235428a58.514286 58.514286 0 0 1 55.588572 40.667429l226.157714 677.302857a55.881143 55.881143 0 0 1 2.925714 18.139428V965.485714a58.514286 58.514286 0 0 1-58.514285 58.514286zM285.55147 58.514286L58.516041 736.987429V965.485714h1755.428572v-229.376L1587.786898 58.514286z" fill="#ffffff" p-id="3684"></path><path d="M219.430327 863.085714m-43.885714 0a43.885714 43.885714 0 1 0 87.771428 0 43.885714 43.885714 0 1 0-87.771428 0Z" fill="#ffffff" p-id="3685"></path><path d="M394.973184 863.085714m-43.885714 0a43.885714 43.885714 0 1 0 87.771428 0 43.885714 43.885714 0 1 0-87.771428 0Z" fill="#ffffff" p-id="3686"></path><path d="M570.516041 863.085714m-43.885714 0a43.885714 43.885714 0 1 0 87.771428 0 43.885714 43.885714 0 1 0-87.771428 0Z" fill="#ffffff" p-id="3687"></path><path d="M775.316041 863.085714m-43.885714 0a43.885714 43.885714 0 1 0 87.771428 0 43.885714 43.885714 0 1 0-87.771428 0Z" fill="#ffffff" p-id="3688"></path><path d="M1097.144613 863.085714m-43.885715 0a43.885714 43.885714 0 1 0 87.771429 0 43.885714 43.885714 0 1 0-87.771429 0Z" fill="#ffffff" p-id="3689"></path><path d="M1301.944613 863.085714m-43.885715 0a43.885714 43.885714 0 1 0 87.771429 0 43.885714 43.885714 0 1 0-87.771429 0Z" fill="#ffffff" p-id="3690"></path><path d="M1477.48747 863.085714m-43.885715 0a43.885714 43.885714 0 1 0 87.771429 0 43.885714 43.885714 0 1 0-87.771429 0Z" fill="#ffffff" p-id="3691"></path><path d="M1653.030327 863.085714m-43.885714 0a43.885714 43.885714 0 1 0 87.771428 0 43.885714 43.885714 0 1 0-87.771428 0Z" fill="#ffffff" p-id="3692"></path><path d="M29.258898 731.428571h1813.942857v29.257143H29.258898z" fill="#ffffff" p-id="3693"></path><path d="M1231.434898 193.682286m0 28.672l0 96.841143q0 28.672-28.672 28.672l-497.664 0q-28.672 0-28.672-28.672l0-96.841143q0-28.672 28.672-28.672l497.664 0q28.672 0 28.672 28.672Z" fill="#ffffff" p-id="3694"></path><path d="M1202.762898 377.124571h-497.371428a58.514286 58.514286 0 0 1-58.514286-58.514285V222.354286a58.514286 58.514286 0 0 1 58.514286-58.514286h497.371428a58.514286 58.514286 0 0 1 58.514286 58.514286v96.841143a58.514286 58.514286 0 0 1-58.514286 57.929142z m-526.628571-58.514285z m29.257143 0h497.371428V222.354286h-497.371428z" fill="#ffffff" p-id="3695"></path><path d="M676.71947 523.117714h554.715428" fill="#ffffff" p-id="3696"></path><path d="M1231.434898 552.374857h-555.885714a29.257143 29.257143 0 0 1 0-58.514286h555.885714a29.257143 29.257143 0 0 1 0 58.514286z" fill="#ffffff" p-id="3697"></path><path d="M1092.46347 333.238857v-117.028571" fill="#ffffff" p-id="3698"></path><path d="M1092.46347 362.496a29.257143 29.257143 0 0 1-29.257143-29.257143v-117.028571a29.257143 29.257143 0 0 1 58.514286 0v117.028571a29.257143 29.257143 0 0 1-29.257143 29.257143z" fill="#ffffff" p-id="3699"></path><path d="M1231.434898 567.003429v-87.771429" fill="#ffffff" p-id="3700"></path><path d="M1231.434898 596.260571a29.257143 29.257143 0 0 1-29.257143-29.257142v-87.771429a29.257143 29.257143 0 0 1 58.514286 0v87.771429a29.257143 29.257143 0 0 1-29.257143 29.257142z" fill="#ffffff" p-id="3701"></path><path d="M676.71947 567.003429v-87.771429" fill="#ffffff" p-id="3702"></path><path d="M676.71947 596.260571a29.257143 29.257143 0 0 1-29.257143-29.257142v-87.771429a29.257143 29.257143 0 0 1 58.514286 0v87.771429a29.257143 29.257143 0 0 1-29.257143 29.257142z" fill="#ffffff" p-id="3703"></path><path d="M951.736613 333.238857v-117.028571" fill="#ffffff" p-id="3704"></path><path d="M951.736613 362.496a29.257143 29.257143 0 0 1-29.257143-29.257143v-117.028571a29.257143 29.257143 0 0 1 58.514285 0v117.028571a29.257143 29.257143 0 0 1-29.257142 29.257143z" fill="#ffffff" p-id="3705"></path><path d="M811.009755 333.238857v-117.028571" fill="#ffffff" p-id="3706"></path><path d="M811.009755 362.496a29.257143 29.257143 0 0 1-29.257142-29.257143v-117.028571a29.257143 29.257143 0 0 1 58.514285 0v117.028571a29.257143 29.257143 0 0 1-29.257143 29.257143z" fill="#ffffff" p-id="3707"></path></svg>