<?xml version="1.0" encoding="utf-8"?>
<svg version="1.1" xmlns:xlink="http://www.w3.org/1999/xlink" width="355px" height="155px" xmlns="http://www.w3.org/2000/svg">
  <g transform="matrix(1 0 0 1 -468 -63 )">
    <path d="M 0.145796010517253 125.777377737774  L 6.61414113104706 144.876875417605  L 8.39237216598402 139.798821599953  L 12.7475978189439 151.7368967666  L 17.2830926094565 131.181518151815  L 24.3020824332507 114.870193767845  L 32.1284478624585 98.1182118211821  L 42.7854223025751 103.312064539787  L 52.1344866170542 103.312064539787  L 60.5668631895202 107.945574925592  L 69.0145818162443 131.181518151815  L 75.5355088436226 127.547921805708  L 80.9219336785232 110.715422462493  L 90.2709979930021 119.337000366703  L 99.8732062027672 101.108102646999  L 108.9978929737 84.5116052588865  L 113.432286023835 63.7722772277228  L 123.737771603667 84.5116052588865  L 133.096424702058 84.5116052588865  L 142.923010455371 84  L 153.102463456654 84  L 161.172383997236 110.715422462493  L 168.893272803409 107.945574925592  L 171.58605192408 136.05867253392  L 179.88969019402 125.777377737774  L 187.800436921656 136.05867253392  L 192.52387187685 119.337000366703  L 196.735265771126 98.1182118211821  L 203.052356612541 63.7722772277228  L 208.431664387333 0.0123356597954916  L 217.1997568253 36.4840673517872  L 223.173460774084 36.4840673517872  L 227.812514430847 80.6288628862887  L 241.56853789712 84.5116052588865  L 249.068930607605 98.1182118211821  L 259.380800695467 84.5116052588865  L 271.164720516833 125.777377737774  L 282.217035052322 95.7355783482539  L 293.769923449905 98.1182118211821  L 303.226370660629 95.7355783482539  L 310.962613004636 80.6288628862887  L 320.810271115407 98.1182118211821  L 330.783646936564 98.1182118211821  L 340.785804222424 84.5116052588865  L 351.992217038495 101.108102646999  " stroke-width="2" stroke="#027db4" fill="none" transform="matrix(1 0 0 1 469 64 )" />
  </g>
</svg>