<?xml version="1.0" encoding="utf-8"?>
<svg version="1.1" xmlns:xlink="http://www.w3.org/1999/xlink" width="630px" height="155px" xmlns="http://www.w3.org/2000/svg">
  <g transform="matrix(1 0 0 1 -468 -63 )">
    <path d="M 0.259699143733857 125.777377737774  L 11.7814388896776 144.876875417605  L 14.948912920659 139.798821599953  L 22.7066586149939 151.7368967666  L 30.7855087105945 131.181518151815  L 43.2880843342277 114.870193767845  L 57.2287977550042 98.1182118211821  L 76.211533476462 103  L 92.8645542866277 103  L 107.884725056333 107.945574925592  L 122.932223860185 131.181518151815  L 134.547625127703 127.547921805708  L 144.142194364869 110.715422462493  L 160.795215175035 119.337000366703  L 177.899148548679 101.108102646999  L 194.152496859402 84.5116052588865  L 202.051259479957 63.7722772277228  L 220.407905669032 84  L 237.078006500542 84  L 254.58161237363 84  L 272.713763032165 84  L 287.088308995076 110.715422462493  L 300.841142181073 107.945574925592  L 305.637654989768 136.05867253392  L 320.428510658098 125.777377737774  L 334.5195282667 136.05867253392  L 342.933146780638 119.337000366703  L 350.434692154818 98.1182118211821  L 361.687010216088 63.7722772277228  L 371.268902189937 0.0123356597954916  L 386.887066845066 37  L 397.527727003837 37  L 405.791041329947 80.6288628862887  L 430.293958129245 84.5116052588865  L 443.654032644797 98.1182118211821  L 462.022051238801 84.5116052588865  L 483.012158420609 125.777377737774  L 502.699093686949 95.7355783482539  L 523.277676145143 98.1182118211821  L 540.121972739245 95.7355783482539  L 553.902154414508 80.6288628862887  L 571.443295424319 98  L 589.208371105755 98  L 607.024713771193 84.5116052588865  L 626.986136599819 101.108102646999  " stroke-width="2" stroke="#aaaaaa" fill="none" transform="matrix(1 0 0 1 469 64 )" />
  </g>
</svg>