<?xml version="1.0" encoding="utf-8"?>
<svg version="1.1" xmlns:xlink="http://www.w3.org/1999/xlink" width="104px" height="104px" xmlns="http://www.w3.org/2000/svg">
  <g transform="matrix(1 0 0 1 -1219 -304 )">
    <path d="M 1220 308  A 3 3 0 0 1 1223 305 L 1319 305  A 3 3 0 0 1 1322 308 L 1322 404  A 3 3 0 0 1 1319 407 L 1223 407  A 3 3 0 0 1 1220 404 L 1220 308  Z " fill-rule="nonzero" fill="#ffffff" stroke="none" />
    <path d="M 1219.5 308  A 3.5 3.5 0 0 1 1223 304.5 L 1319 304.5  A 3.5 3.5 0 0 1 1322.5 308 L 1322.5 404  A 3.5 3.5 0 0 1 1319 407.5 L 1223 407.5  A 3.5 3.5 0 0 1 1219.5 404 L 1219.5 308  Z " stroke-width="1" stroke-dasharray="9,4" stroke="#d9d9d9" fill="none" stroke-dashoffset="0.5" />
  </g>
</svg>