<svg t="1732609932570" class="icon" viewBox="0 0 1024 1024" version="1.1" xmlns="http://www.w3.org/2000/svg" p-id="4467" width="32" height="32"><path d="M512 44.928A467.584 467.584 0 0 0 44.928 512C44.8 535.808 46.72 559.552 50.56 583.04a473.28 473.28 0 0 0 22.912 89.6c15.36 42.56 37.12 82.56 64.384 118.656A467.008 467.008 0 1 0 512 44.928z m-22.4 648.32l-66.56 35.84a46.72 46.72 0 0 1-58.432-11.648 45.44 45.44 0 0 1-9.344-38.336l13.76-69.824a45.184 45.184 0 0 0-14.4-42.944v-0.448l-51.84-47.616a46.08 46.08 0 0 1-13.12-48.64 46.976 46.976 0 0 1 38.784-32.256l72.832-8.832a45.504 45.504 0 0 0 36.48-26.176l32.192-66.56A46.784 46.784 0 0 1 512 309.184a46.08 46.08 0 0 1 42.048 26.624l32.192 66.56c1.664 3.648 3.84 6.912 6.528 9.856a44.8 44.8 0 0 0 29.952 16.32l72.832 8.832a46.08 46.08 0 0 1 24.32 10.24 44.416 44.416 0 0 1 8.384 9.856 47.744 47.744 0 0 1 7.488 36.416 47.104 47.104 0 0 1-7.936 16.832 53.568 53.568 0 0 1-6.528 7.488l-52.352 48.064a46.08 46.08 0 0 0-13.952 42.944l13.44 70.08a45.44 45.44 0 0 1-9.28 38.336 47.744 47.744 0 0 1-36.48 17.28 45.184 45.184 0 0 1-21.952-5.632l-66.56-35.84a40.576 40.576 0 0 0-10.752-3.712 45.12 45.12 0 0 0-11.2-1.92 52.992 52.992 0 0 0-22.592 5.44z" fill="#334166" p-id="4468"></path></svg>