<?xml version="1.0" encoding="utf-8"?>
<svg version="1.1" xmlns:xlink="http://www.w3.org/1999/xlink" width="68px" height="61px" xmlns="http://www.w3.org/2000/svg">
  <g transform="matrix(1 0 0 1 -69 -523 )">
    <path d="M 70 525  A 1 1 0 0 1 71 524 L 135 524  A 1 1 0 0 1 136 525 L 136 582  A 1 1 0 0 1 135 583 L 71 583  A 1 1 0 0 1 70 582 L 70 525  Z " fill-rule="nonzero" fill="#f2f2f2" stroke="none" />
    <path d="M 69.5 525  A 1.5 1.5 0 0 1 71 523.5 L 135 523.5  A 1.5 1.5 0 0 1 136.5 525 L 136.5 582  A 1.5 1.5 0 0 1 135 583.5 L 71 583.5  A 1.5 1.5 0 0 1 69.5 582 L 69.5 525  Z " stroke-width="1" stroke="#000000" fill="none" stroke-opacity="0.0470588235294118" />
  </g>
</svg>