<svg t="1680167321344" class="icon" viewBox="0 0 1024 1024" version="1.1" xmlns="http://www.w3.org/2000/svg" p-id="4186" width="48" height="48"><path d="M945.25 161.22h-853a25 25 0 0 0-25 25v591.65a25 25 0 0 0 25 25h853a25 25 0 0 0 25-25V186.22a25 25 0 0 0-25-25z m-25 591.65h-803V211.22h803z" fill="#8a8a8a" p-id="4187"></path><path d="M198.46 670.2a25 25 0 0 0 25-25c0-80.61 65.54-146.2 146.19-146.2s146.19 65.59 146.19 146.2a25 25 0 0 0 50 0c0-79.39-47.4-147.91-115.38-178.76a115.79 115.79 0 1 0-161.09-0.24c-68.27 30.74-115.91 99.41-115.91 179a25 25 0 0 0 25 25zM370 317.45a65.78 65.78 0 1 1-65.78 65.78A65.86 65.86 0 0 1 370 317.45zM730.47 353.65H846a25 25 0 0 0 0-50H730.47a25 25 0 0 0 0 50zM639.68 508H846a25 25 0 0 0 0-50H639.68a25 25 0 0 0 0 50zM633.42 662.43H846a25 25 0 0 0 0-50H633.42a25 25 0 0 0 0 50z" fill="#8a8a8a" p-id="4188"></path></svg>