<svg t="1749188449908" class="icon" viewBox="0 0 1024 1024" version="1.1" xmlns="http://www.w3.org/2000/svg" p-id="25639" width="64" height="64"><path d="M511.999488 66.861804c-245.825778 0-445.138196 199.284789-445.138196 445.138196 0 245.852384 199.312418 445.137173 445.138196 445.137173 245.880013 0 445.138196-199.284789 445.138196-445.137173C957.137685 266.146593 757.879502 66.861804 511.999488 66.861804zM750.761384 762.417353c-15.377222 0-27.821649-12.443403-27.821649-27.821649 0-116.2834-94.602611-210.886011-210.94127-210.886011-116.2834 0-210.886011 94.603635-210.886011 210.886011 0 15.377222-12.443403 27.821649-27.821649 27.821649s-27.821649-12.443403-27.821649-27.821649c0-117.070322 76.399017-215.667921 181.543729-251.368004-49.502437-29.28907-83.137489-82.675978-83.137489-144.267754 0-92.727914 75.420737-168.17628 168.122045-168.17628s168.123069 75.448366 168.123069 168.17628c0 61.591777-33.580816 114.979708-83.137489 144.267754 105.198947 35.700083 181.597965 134.297682 181.597965 251.368004C778.583033 749.97395 766.138606 762.417353 750.761384 762.417353z" fill="#bfbfbf" p-id="25640"></path><path d="M511.999488 226.425939c-62.000076 0-112.479771 50.480718-112.479771 112.534006 0 62.026682 50.479695 112.5074 112.479771 112.5074 62.055334 0 112.480794-50.480718 112.480794-112.5074C624.480282 276.905634 574.0538 226.425939 511.999488 226.425939z" fill="#bfbfbf" p-id="25641"></path></svg>