<?xml version="1.0" encoding="utf-8"?>
<svg version="1.1" xmlns:xlink="http://www.w3.org/1999/xlink" width="40px" height="40px" xmlns="http://www.w3.org/2000/svg">
  <g transform="matrix(1 0 0 1 -762 -359 )">
    <path d="M 29.4270833333334 27.0833333333335  C 29.7569444444445 26.7534722222217  29.921875 26.3541666666665  29.921875 25.8854166666665  C 29.921875 25.4340277777783  29.7569444444445 25.0434027777783  29.4270833333334 24.7135416666665  L 24.7135416666667 20  L 29.4270833333334 15.2864583333335  C 29.7569444444445 14.9565972222217  29.921875 14.5659722222217  29.921875 14.1145833333335  C 29.921875 13.6458333333335  29.7569444444445 13.2465277777783  29.4270833333334 12.9166666666665  L 27.0833333333334 10.5729166666665  C 26.7534722222222 10.2430555555552  26.3541666666666 10.078125  25.8854166666666 10.078125  C 25.4340277777778 10.078125  25.0434027777778 10.2430555555552  24.7135416666667 10.5729166666665  L 20 15.2864583333335  L 15.2864583333333 10.5729166666665  C 14.9565972222222 10.2430555555552  14.5659722222222 10.078125  14.1145833333333 10.078125  C 13.6458333333333 10.078125  13.2465277777778 10.2430555555552  12.9166666666667 10.5729166666665  L 10.5729166666667 12.9166666666665  C 10.2430555555555 13.2465277777783  10.078125 13.6458333333335  10.078125 14.1145833333335  C 10.078125 14.5659722222217  10.2430555555555 14.9565972222217  10.5729166666667 15.2864583333335  L 15.2864583333333 20  L 10.5729166666667 24.7135416666665  C 10.2430555555555 25.0434027777783  10.078125 25.4340277777783  10.078125 25.8854166666665  C 10.078125 26.3541666666665  10.2430555555555 26.7534722222217  10.5729166666667 27.0833333333335  L 12.9166666666667 29.4270833333335  C 13.2465277777778 29.7569444444448  13.6458333333333 29.921875  14.1145833333333 29.921875  C 14.5659722222222 29.921875  14.9565972222222 29.7569444444448  15.2864583333333 29.4270833333335  L 20 24.7135416666665  L 24.7135416666667 29.4270833333335  C 25.0434027777778 29.7569444444448  25.4340277777778 29.921875  25.8854166666666 29.921875  C 26.3541666666666 29.921875  26.7534722222222 29.7569444444448  27.0833333333334 29.4270833333335  L 29.4270833333334 27.0833333333335  Z M 37.3177083333334 9.9609375  C 39.1059027777778 13.0251736111118  40 16.3715277777783  40 20  C 40 23.6284722222217  39.1059027777778 26.9748263888882  37.3177083333334 30.0390625  C 35.5295138888889 33.1032986111118  33.1032986111111 35.5295138888882  30.0390625 37.3177083333335  C 26.9748263888889 39.1059027777783  23.6284722222222 40  20 40  C 16.3715277777778 40  13.0251736111111 39.1059027777783  9.9609375 37.3177083333335  C 6.89670138888891 35.5295138888882  4.47048611111109 33.1032986111118  2.68229166666669 30.0390625  C 0.894097222222229 26.9748263888882  0 23.6284722222217  0 20  C 0 16.3715277777783  0.894097222222229 13.0251736111118  2.68229166666669 9.9609375  C 4.47048611111109 6.89670138888823  6.89670138888891 4.47048611111177  9.9609375 2.68229166666652  C 13.0251736111111 0.894097222221717  16.3715277777778 0  20 0  C 23.6284722222222 0  26.9748263888889 0.894097222221717  30.0390625 2.68229166666652  C 33.1032986111111 4.47048611111177  35.5295138888889 6.89670138888823  37.3177083333334 9.9609375  Z " fill-rule="nonzero" fill="#f34235" stroke="none" transform="matrix(1 0 0 1 762 359 )" />
  </g>
</svg>