<?xml version="1.0" encoding="utf-8"?>
<svg version="1.1" xmlns:xlink="http://www.w3.org/1999/xlink" width="104px" height="104px" xmlns="http://www.w3.org/2000/svg">
  <g transform="matrix(1 0 0 1 -192 -823 )">
    <path d="M 193 827  A 3 3 0 0 1 196 824 L 292 824  A 3 3 0 0 1 295 827 L 295 923  A 3 3 0 0 1 292 926 L 196 926  A 3 3 0 0 1 193 923 L 193 827  Z " fill-rule="nonzero" fill="#ffffff" stroke="none" />
    <path d="M 192.5 827  A 3.5 3.5 0 0 1 196 823.5 L 292 823.5  A 3.5 3.5 0 0 1 295.5 827 L 295.5 923  A 3.5 3.5 0 0 1 292 926.5 L 196 926.5  A 3.5 3.5 0 0 1 192.5 923 L 192.5 827  Z " stroke-width="1" stroke-dasharray="9,4" stroke="#d9d9d9" fill="none" stroke-dashoffset="0.5" />
  </g>
</svg>