<?xml version="1.0" encoding="utf-8"?>
<svg version="1.1" xmlns:xlink="http://www.w3.org/1999/xlink" width="104px" height="104px" xmlns="http://www.w3.org/2000/svg">
  <g transform="matrix(1 0 0 1 -72 -823 )">
    <path d="M 73 827  A 3 3 0 0 1 76 824 L 172 824  A 3 3 0 0 1 175 827 L 175 923  A 3 3 0 0 1 172 926 L 76 926  A 3 3 0 0 1 73 923 L 73 827  Z " fill-rule="nonzero" fill="#000000" stroke="none" fill-opacity="0.0196078431372549" />
    <path d="M 72.5 827  A 3.5 3.5 0 0 1 76 823.5 L 172 823.5  A 3.5 3.5 0 0 1 175.5 827 L 175.5 923  A 3.5 3.5 0 0 1 172 926.5 L 76 926.5  A 3.5 3.5 0 0 1 72.5 923 L 72.5 827  Z " stroke-width="1" stroke-dasharray="9,4" stroke="#d9d9d9" fill="none" stroke-dashoffset="0.5" />
  </g>
</svg>