<?xml version="1.0" encoding="utf-8"?>
<svg version="1.1" xmlns:xlink="http://www.w3.org/1999/xlink" width="32px" height="32px" xmlns="http://www.w3.org/2000/svg">
  <g transform="matrix(1 0 0 1 -1178 -199 )">
    <path d="M 1194 199.5  C 1202.68 199.5  1209.5 206.32  1209.5 215  C 1209.5 223.68  1202.68 230.5  1194 230.5  C 1185.32 230.5  1178.5 223.68  1178.5 215  C 1178.5 206.32  1185.32 199.5  1194 199.5  Z " fill-rule="nonzero" fill="#ffffff" stroke="none" fill-opacity="0" />
    <path d="M 1194 199.5  C 1202.68 199.5  1209.5 206.32  1209.5 215  C 1209.5 223.68  1202.68 230.5  1194 230.5  C 1185.32 230.5  1178.5 223.68  1178.5 215  C 1178.5 206.32  1185.32 199.5  1194 199.5  Z " stroke-width="1" stroke="#000000" fill="none" stroke-opacity="0.149019607843137" />
  </g>
</svg>