<?xml version="1.0" encoding="utf-8"?>
<svg version="1.1" xmlns:xlink="http://www.w3.org/1999/xlink" width="1271px" height="295px" xmlns="http://www.w3.org/2000/svg">
  <g transform="matrix(1 0 0 1 -334 -373 )">
    <path d="M 0.525196992431468 241.62496249625  L 23.8259402107036 278.316102775925  L 30.231613370647 268.560894126226  L 45.920323961423 291.494564841099  L 62.2584131499741 252.006600660066  L 87.5427287652325 220.671688027702  L 115.735431504538 188.490249024902  L 154.124759885413 198  L 187.802639290979 198  L 218.178359444067 207.369130778112  L 248.609345860789 252.006600660066  L 272.09950344805 245.026270837281  L 291.502874728316 212.690153677948  L 325.180754133883 229.252658599193  L 359.770526889514 194.233986663973  L 392.64013718935 162.351241681545  L 408.614030335861 122.509900990099  L 445.737199981392 162  L 479.449620801733 162  L 514.847662663098 162  L 551.516828588175 162  L 580.58688326277 212.690153677948  L 608.399630439554 207.369130778112  L 618.099755226516 261.375870920425  L 648.011724903459 241.62496249625  L 676.508392092784 261.375870920425  L 693.523493010924 229.252658599193  L 708.694082380079 188.490249024902  L 731.449966433811 122.509900990099  L 750.827700122551 0.0236974517123918  L 782.412760382046 70  L 803.931671197552 70  L 820.642807665666 154.892289228923  L 870.195755833944 162.351241681545  L 897.21421593876 188.490249024902  L 934.360384323444 162.351241681545  L 976.809277316319 241.62496249625  L 1016.62272854075 183.913084721646  L 1058.23938333659 188.490249024902  L 1092.30408522067 183.913084721646  L 1120.17214002806 154.892289228923  L 1155.646090268 188  L 1191.5729099874 188  L 1227.60340839214 162.351241681545  L 1267.97196365003 194.233986663973  " stroke-width="2" stroke="#027db4" fill="none" transform="matrix(1 0 0 1 335 374 )" />
  </g>
</svg>