<?xml version="1.0" encoding="utf-8"?>
<svg version="1.1" xmlns:xlink="http://www.w3.org/1999/xlink" width="675px" height="32px" xmlns="http://www.w3.org/2000/svg">
  <g transform="matrix(1 0 0 1 -489 -885 )">
    <path d="M 490 889  A 3 3 0 0 1 493 886 L 1160 886  A 3 3 0 0 1 1163 889 L 1163 913  A 3 3 0 0 1 1160 916 L 493 916  A 3 3 0 0 1 490 913 L 490 889  Z " fill-rule="nonzero" fill="#ffffff" stroke="none" />
    <path d="M 489.5 889  A 3.5 3.5 0 0 1 493 885.5 L 1160 885.5  A 3.5 3.5 0 0 1 1163.5 889 L 1163.5 913  A 3.5 3.5 0 0 1 1160 916.5 L 493 916.5  A 3.5 3.5 0 0 1 489.5 913 L 489.5 889  Z " stroke-width="1" stroke-dasharray="9,4" stroke="#d9d9d9" fill="none" stroke-dashoffset="0.5" />
  </g>
</svg>