<svg t="1725866219946" class="icon" viewBox="0 0 1024 1024" version="1.1" xmlns="http://www.w3.org/2000/svg" p-id="4875" width="200" height="200"><path d="M256.2 624.8c8.4-31.9 12.6-66.2 12.7-103l-32.6 8.7-5-18.6 35.3-9.5-9.6-35.9c-9.9 3.5-20.5 7.2-31.8 11.1-2.5-5.7-5.5-11.7-9.1-18.1 35.1-11.5 65.4-22.7 90.9-33.6l10 18.6c-11.3 4.3-25 9.4-41.1 15.2l10 37.4 35.9-9.6 5 18.6-35.9 9.6 5.4 20.2 9-10.3c10.2 8.9 21.9 20.3 35 34.4L327 575c-11.6-13.2-21.1-23.6-28.6-31.3l36.1 134.8-19.4 5.2L282 560.1c-0.5 32.1-4 60.4-10.7 84.8-4.7-6.6-9.7-13.3-15.1-20.1z m81.4-118.3l20.4-2.4c3.5 29.2 5.9 55.7 7.3 79.4-9.4-0.1-16.2 0.3-20.4 1.3-0.3-23-2.7-49.1-7.3-78.3z m9.6 136.6c17.2-19.2 31.7-39.8 43.5-61.8l-37-138.3 19.6-5.3 30.9 115.2c16.8-41.2 25.1-90.1 25-146.7l21.7-0.8c-0.4 71.5-13 131.6-37.8 180.3l6.2 23.2c2.8 10.5 9.4 14.3 19.7 11.6l20.4-5.5c12.6-3.4 18.1-10.5 16.5-21.3-1.1-11.1-3.7-25.6-7.7-43.4 7.8 1.3 15.5 2 23.1 2.2 3.3 18 5.6 32 6.8 42 2.6 20.3-7.5 33.4-30.4 39.6l-29.1 7.8c-19.6 5.2-32.3-3.1-38.2-25.1l-1.6-6c-9.9 15.6-21.1 30.3-33.6 44.4-3.6-3.1-9.5-7.1-18-12.1z m7.1-234.3l14.6-15.7c14.6 12 30.3 25.8 47.1 41.6l-15.7 16.8c-15.6-16.4-30.9-30.6-46-42.7z m102.3 70.6l18.2-10.8c13.1 21.6 25.1 43.1 36.1 64.7l-18.8 10.6c-11.5-23.6-23.4-45.1-35.5-64.5zM491.1 391.5l112.2-30.1c-4.9-5.4-10.3-11-16.1-16.7l16.9-14.4c7.8 7.5 15.3 15.7 22.6 24.8l105-28.1 12.5 46.6-21.2 5.7-7.4-27.8-198.2 53.1 7.4 27.8-21.2 5.7-12.5-46.6z m23 130.8c22.8-13.6 44.8-28.6 66-44.9l-16.1-60 18.6-5 13.9 52c33.1-27.3 63.9-57.9 92.5-91.7l16.5 12.4c-30 34.3-62.7 66.1-98.1 95.3 4.6 2.5 10.4 2.8 17.5 0.9l50.3-13.5c10.5-2.8 16-7.5 16.5-14 0.7-6.4 0-16.2-2.3-29.4 6.4 0.9 13.7 1.7 21.9 2.3 1 14.1 1.4 23.3 1.2 27.5 0.2 15.3-9 25.4-27.5 30.4l-59.7 16c-15.1 4-26.8 1.9-35.1-6.4a867.12 867.12 0 0 1-61.3 43.5c-4.6-5.6-9.5-10.7-14.8-15.4z m20.4-91.3l20.2 2.2c-3.1 21.2-7.3 41.1-12.7 59.5-6.3-1.3-13.5-2.4-21.4-3.3 6-16.4 10.6-35.8 13.9-58.4z m216.4 137l-2.7-10.2-176.5 47.3-18.5-68.9 19.9-5.3 13.4 50 67.8-18.2-16.1-60.2 20.9-5.6 16.1 60.2 67.8-18.2-13.4-50 19.9-5.3 21.2 79.1-19.8 5.3z m-156-167.2l10.5-15.4c14.2 6.1 27 12.4 38.5 18.9l-11.4 18.2c-12.9-8.2-25.4-15.5-37.6-21.7z m113.2 5.3l12.2-15.3c17.6 11.2 33 22 46.3 32.5l-13.8 17.5c-13-11.2-27.9-22.8-44.7-34.7z" fill="#E86243" p-id="4876"></path><path d="M225.2 818.7c-8.8 0-17.5-2.3-25.3-6.8-11.7-6.8-20.1-17.7-23.6-30.7L82.1 429.7c-7.2-27 8.8-54.8 35.8-62l654.4-175.4c13-3.5 26.6-1.7 38.4 5.1 11.7 6.8 20.1 17.7 23.6 30.7l94.2 351.5c3.5 13 1.7 26.6-5.1 38.4-6.8 11.7-17.7 20.1-30.7 23.6L238.3 816.9c-4.3 1.2-8.7 1.8-13.1 1.8z m560.2-620.2c-3.7 0-7.4 0.5-11 1.5L120 375.4c-22.7 6.1-36.3 29.5-30.2 52.3L184 779.1c2.9 11 10 20.2 19.9 25.9 9.9 5.7 21.4 7.3 32.4 4.3l654.4-175.4 1 3.8-1-3.8c11-2.9 20.2-10 25.9-19.9 5.7-9.9 7.3-21.4 4.3-32.4l-94.2-351.5c-2.9-11-10-20.2-19.9-25.9-6.6-3.7-14-5.7-21.4-5.7z" fill="#E96243" p-id="4877"></path></svg>