<?xml version="1.0" encoding="utf-8"?>
<svg version="1.1" xmlns:xlink="http://www.w3.org/1999/xlink" width="14px" height="14px" xmlns="http://www.w3.org/2000/svg">
  <g transform="matrix(1 0 0 1 -42 -357 )">
    <path d="M 49 357  C 52.92 357  56 360.08  56 364  C 56 367.92  52.92 371  49 371  C 45.08 371  42 367.92  42 364  C 42 360.08  45.08 357  49 357  Z " fill-rule="nonzero" fill="#ffffff" stroke="none" fill-opacity="0" />
    <path d="M 49 357.5  C 52.64 357.5  55.5 360.36  55.5 364  C 55.5 367.64  52.64 370.5  49 370.5  C 45.36 370.5  42.5 367.64  42.5 364  C 42.5 360.36  45.36 357.5  49 357.5  Z " stroke-width="1" stroke="#1890ff" fill="none" />
  </g>
</svg>