<svg t="1725614296815" class="icon" viewBox="0 0 1024 1024" version="1.1" xmlns="http://www.w3.org/2000/svg" p-id="3820" width="200" height="200"><path d="M391.478613 819.2H245.76a54.272 54.272 0 0 1-38.611627-15.99488A54.24128 54.24128 0 0 1 191.146667 764.586667v-84.077227a302.127787 302.127787 0 0 1-40.301227-79.530667A283.70944 283.70944 0 0 1 136.533333 512a283.79136 283.79136 0 0 1 7.6288-65.35168 291.283627 291.283627 0 0 1 21.879467-60.869973 313.344 313.344 0 0 1 34.618027-55.08096 342.777173 342.777173 0 0 1 45.847893-47.991467 372.268373 372.268373 0 0 1 55.569067-39.594667 397.892267 397.892267 0 0 1 63.778133-29.897386A424.649387 424.649387 0 0 1 512 187.733333a424.639147 424.639147 0 0 1 146.152107 25.480534 397.892267 397.892267 0 0 1 63.778133 29.897386 372.241067 372.241067 0 0 1 55.565653 39.594667 342.55872 342.55872 0 0 1 45.847894 47.991467 312.951467 312.951467 0 0 1 34.618026 55.08096 291.57376 291.57376 0 0 1 21.879467 60.869973A283.88352 283.88352 0 0 1 887.466667 512a283.866453 283.866453 0 0 1-7.6288 65.348267 291.560107 291.560107 0 0 1-21.879467 60.869973 312.828587 312.828587 0 0 1-34.618027 55.08096 342.295893 342.295893 0 0 1-45.847893 47.99488 372.360533 372.360533 0 0 1-55.565653 39.594667 398.03904 398.03904 0 0 1-63.778134 29.897386A424.639147 424.639147 0 0 1 512 836.266667a429.056 429.056 0 0 1-120.521387-17.066667zM204.8 512c0 52.432213 18.889387 102.83008 54.613333 145.749333V703.146667a47.844693 47.844693 0 0 0 47.786667 47.786666h94.286507a360.628907 360.628907 0 0 0 110.516906 17.066667c169.39008 0 307.2-114.845013 307.2-256s-137.813333-256-307.2-256S204.8 370.845013 204.8 512z m257.706667 116.053333a32.426667 32.426667 0 0 1-32.426667-32.426666 32.426667 32.426667 0 0 1 32.426667-32.426667h98.986666a32.426667 32.426667 0 0 1 32.426667 32.426667 32.426667 32.426667 0 0 1-32.426667 32.426666z m-68.266667-163.84a32.426667 32.426667 0 0 1-32.426667-32.426666 32.426667 32.426667 0 0 1 32.426667-32.426667h235.52a32.426667 32.426667 0 0 1 32.426667 32.426667 32.426667 32.426667 0 0 1-32.426667 32.426666z" fill="#1296db" p-id="3821"></path></svg>