<?xml version="1.0" encoding="utf-8"?>
<svg version="1.1" xmlns:xlink="http://www.w3.org/1999/xlink" width="17px" height="17px" xmlns="http://www.w3.org/2000/svg">
  <g transform="matrix(1 0 0 1 -142 -286 )">
    <path d="M 150.5 286.5  C 154.98 286.5  158.5 290.02  158.5 294.5  C 158.5 298.98  154.98 302.5  150.5 302.5  C 146.02 302.5  142.5 298.98  142.5 294.5  C 142.5 290.02  146.02 286.5  150.5 286.5  Z " fill-rule="nonzero" fill="#81d3f8" stroke="none" fill-opacity="0.988235294117647" />
    <path d="M 150.5 286.5  C 154.98 286.5  158.5 290.02  158.5 294.5  C 158.5 298.98  154.98 302.5  150.5 302.5  C 146.02 302.5  142.5 298.98  142.5 294.5  C 142.5 290.02  146.02 286.5  150.5 286.5  Z " stroke-width="1" stroke="#015478" fill="none" stroke-opacity="0.717647058823529" />
  </g>
</svg>