<svg t="1732609900387" class="icon" viewBox="0 0 1024 1024" version="1.1" xmlns="http://www.w3.org/2000/svg" p-id="3412" width="32" height="32"><path d="M779.0592 924.4672H240.298667A147.592533 147.592533 0 0 1 92.842667 776.874667V238.250667a147.592533 147.592533 0 0 1 147.456-147.456h538.760533a147.592533 147.592533 0 0 1 147.456 147.456V776.874667a147.592533 147.592533 0 0 1-147.456 147.592533zM240.298667 145.408a92.9792 92.9792 0 0 0-92.842667 92.842667V776.874667a92.9792 92.9792 0 0 0 92.842667 92.842666h538.760533a92.9792 92.9792 0 0 0 92.842667-92.842666V238.250667a92.9792 92.9792 0 0 0-92.842667-92.842667z" fill="#0073FF" p-id="3413"></path><path d="M899.208533 386.525867H120.149333a27.306667 27.306667 0 1 1 0-54.613334h779.0592a27.306667 27.306667 0 0 1 0 54.613334z" fill="#0073FF" p-id="3414"></path><path d="M295.594667 526.609067m-34.816 0a34.816 34.816 0 1 0 69.632 0 34.816 34.816 0 1 0-69.632 0Z" fill="#0073FF" p-id="3415"></path><path d="M433.7664 526.609067m-34.816 0a34.816 34.816 0 1 0 69.632 0 34.816 34.816 0 1 0-69.632 0Z" fill="#0073FF" p-id="3416"></path><path d="M572.074667 526.609067m-34.816 0a34.816 34.816 0 1 0 69.632 0 34.816 34.816 0 1 0-69.632 0Z" fill="#0073FF" p-id="3417"></path></svg>