<?xml version="1.0" encoding="utf-8"?>
<svg version="1.1" xmlns:xlink="http://www.w3.org/1999/xlink" width="881px" height="258px" xmlns="http://www.w3.org/2000/svg">
  <g transform="matrix(1 0 0 1 -63 -297 )">
    <path d="M 0.363661639869739 211.008100810081  L 16.4977724802822 243.050021259798  L 20.9332464821988 234.530917815711  L 31.7965650142976 254.558609707125  L 43.1095321338149 220.074257425743  L 60.6171260693013 192.70986454474  L 80.1385716569277 164.606210621062  L 106.720456766082 173  L 130.039997868675 173  L 151.073028069315 181.092905302803  L 172.144326234837 220.074257425743  L 188.409593081536 213.978421450365  L 201.845050482225 185.739688999578  L 225.164591584818 200.203520352035  L 249.115554108039 169.622145888058  L 271.875426224171 141.779337769843  L 282.936213434453 106.986386138614  L 308.641373488693 141  L 331.984832069339 141  L 356.495463579022 141  L 381.886258281086 141  L 402.015207811287 185.739688999578  L 421.273561140322 181.092905302803  L 427.990209060632 228.256325632563  L 448.702124972584 211.008100810081  L 468.434044367085 228.256325632563  L 480.21579405646 200.203520352035  L 490.720350417752 164.606210621062  L 506.47718495969 106.986386138614  L 519.894890147949 0.0206946924200681  L 541.765302535833 62  L 556.665620908084 62  L 568.23689679058 135.265526552655  L 602.548796232021 141.779337769843  L 621.257162140561 164.606210621062  L 646.978247189262 141.779337769843  L 676.371092652783 211.008100810081  L 703.939081749827 160.609029465821  L 732.755661332433 164.606210621062  L 756.343049545546 160.609029465821  L 775.639699483154 135.265526552655  L 800.202892157181 164  L 825.079664801999 164  L 850.028227577523 141.779337769843  L 877.980586817609 169.622145888058  " stroke-width="2" stroke="#027db4" fill="none" transform="matrix(1 0 0 1 64 298 )" />
  </g>
</svg>