<?xml version="1.0" encoding="utf-8"?>
<svg version="1.1" xmlns:xlink="http://www.w3.org/1999/xlink" width="1271px" height="258px" xmlns="http://www.w3.org/2000/svg">
  <g transform="matrix(1 0 0 1 -63 -297 )">
    <path d="M 0.525196992431468 211.008100810081  L 23.8259402107036 243.050021259798  L 30.231613370647 234.530917815711  L 45.920323961423 254.558609707125  L 62.2584131499741 220.074257425743  L 87.5427287652325 192.70986454474  L 115.735431504538 164.606210621062  L 154.124759885413 173  L 187.802639290979 173  L 218.178359444067 181.092905302803  L 248.609345860789 220.074257425743  L 272.09950344805 213.978421450365  L 291.502874728316 185.739688999578  L 325.180754133883 200.203520352035  L 359.770526889514 169.622145888058  L 392.64013718935 141.779337769843  L 408.614030335861 106.986386138614  L 445.737199981392 141  L 479.449620801733 141  L 514.847662663098 141  L 551.516828588175 141  L 580.58688326277 185.739688999578  L 608.399630439554 181.092905302803  L 618.099755226516 228.256325632563  L 648.011724903459 211.008100810081  L 676.508392092784 228.256325632563  L 693.523493010924 200.203520352035  L 708.694082380079 164.606210621062  L 731.449966433811 106.986386138614  L 750.827700122551 0.0206946924200681  L 782.412760382046 62  L 803.931671197552 62  L 820.642807665666 135.265526552655  L 870.195755833944 141.779337769843  L 897.21421593876 164.606210621062  L 934.360384323444 141.779337769843  L 976.809277316319 211.008100810081  L 1016.62272854075 160.609029465821  L 1058.23938333659 164.606210621062  L 1092.30408522067 160.609029465821  L 1120.17214002806 135.265526552655  L 1155.646090268 164  L 1191.5729099874 164  L 1227.60340839214 141.779337769843  L 1267.97196365003 169.622145888058  " stroke-width="2" stroke="#027db4" fill="none" transform="matrix(1 0 0 1 64 298 )" />
  </g>
</svg>